<?xml version="1.0" encoding="UTF-8" standalone="no"?>
<!-- Created with Inkscape (http://www.inkscape.org/) -->

<svg
   width="46.096352mm"
   height="107.7002mm"
   viewBox="0 0 46.096352 107.7002"
   version="1.1"
   id="svg1"
   xml:space="preserve"
   xmlns="http://www.w3.org/2000/svg"
   xmlns:svg="http://www.w3.org/2000/svg"><defs
     id="defs1" /><g
     id="layer1"
     transform="translate(-77.943382,-69.457203)"
     style="fill:#e6e6e6;fill-opacity:1"><g
       id="g2"
       transform="translate(34.715932,-0.10786868)"
       style="fill:#e6e6e6;fill-opacity:1"><path
         d="M 89.323802,175.25627 C 72.734779,172.9635 60.647729,159.92558 55.138187,142.10991 c -2.260389,-7.36985 -2.595528,-15.54336 -1.795851,-24.10598 1.460571,-15.26505 8.47397,-28.528081 18.71017,-38.197721 0.03831,-0.04445 0.06216,-0.05997 0.07179,-0.01729 0.03348,0.0441 0.117263,0.09454 0.162736,0.121356 0.05528,0.03245 0.0743,0.0053 0.03362,0.07055 -10.858924,9.939868 -17.836199,25.736195 -18.592766,41.709275 -1.173374,22.80006 9.905612,43.00749 26.508711,49.95651 2.787298,1.1744 5.698773,2.07507 8.742187,2.53436 0.210608,0.27451 0.340078,0.65375 0.345017,1.07529"
         style="fill:#e6e6e6;fill-opacity:1;fill-rule:evenodd;stroke:none;stroke-width:0.0352778"
         id="path48" /><path
         d="m 47.957077,137.16329 c 1.360276,1.61361 3.510421,3.19158 5.835298,2.57846 0.114935,0.1845 0.735047,1.07526 0.818973,1.21179 0.102941,0.16968 0.299191,0.33408 0.452544,0.19156 0.08848,-0.066 0.170074,-0.19156 0.07429,-0.40111 -0.33528,-0.42157 -0.675394,-0.84879 -1.060803,-1.29928 -0.680085,-3.62621 -1.678482,-6.03391 -3.766327,-8.47866 -2.408802,-2.79894 -4.887217,-4.05342 -6.412431,-4.57553 -0.227514,-0.066 -0.428568,-0.121 -0.648779,-0.18697 -0.151033,1.39841 0.493063,3.43393 0.998251,4.60833 0.981714,2.36926 2.047353,4.45241 3.708979,6.35141"
         style="fill:#e6e6e6;fill-opacity:1;fill-rule:evenodd;stroke:none;stroke-width:0.0352778"
         id="path50" /><path
         d="m 67.926805,86.174201 c -0.189089,0.07655 -1.319354,0.372887 -1.458242,0.141817 -0.04798,-0.06526 0.01679,-0.284339 0.115041,-0.301272 0.411762,-0.04445 0.873971,-0.0762 1.27388,-0.15875 0.723054,-2.293761 2.758264,-3.291064 4.616274,-3.675945 2.234071,-0.448733 4.695543,0.236361 7.332099,0.603956 0.129116,0.02752 0.277636,0.03845 0.409222,0.04445 -0.03845,0.08678 -0.103011,0.152047 -0.1651,0.234597 -1.108781,1.508478 -2.825574,2.886428 -4.513651,3.57117 -1.125326,0.478014 -2.485425,0.741186 -3.816773,0.697089 -1.393614,-0.03387 -2.581064,-0.356306 -3.79275,-1.157112"
         style="fill:#e6e6e6;fill-opacity:1;fill-rule:evenodd;stroke:none;stroke-width:0.0352778"
         id="path52" /><path
         d="m 72.287033,79.910279 c 0.08862,0.03245 0.09345,0.0053 0.253859,-0.09419 0.318452,-0.290689 0.581801,-0.471664 0.900254,-0.762353 1.793381,0.01235 3.488796,-0.515055 5.095416,-1.589264 0.71367,-0.483658 1.424517,-1.059744 2.023181,-1.751189 1.427339,-1.535289 2.578806,-3.778955 3.105503,-5.83565 0.02646,-0.115711 0.04798,-0.197556 0.05539,-0.312561 -0.131586,0.05503 -0.254,0.115005 -0.385586,0.176036 -2.894895,1.157111 -5.686884,1.700036 -8.01176,3.947936 -1.573178,1.498248 -2.399313,3.318581 -2.068866,5.085645 -0.356623,0.284692 -0.735189,0.548217 -1.075125,0.883003 -0.165242,0.121003 0.01679,0.246592 0.107738,0.252589"
         style="fill:#e6e6e6;fill-opacity:1;fill-rule:evenodd;stroke:none;stroke-width:0.0352778"
         id="path54" /><path
         d="m 61.773161,95.788808 c -0.191558,0.104775 -1.288309,0.669219 -1.448576,0.4826 -0.06946,-0.0702 -0.03845,-0.312561 0.06212,-0.350309 0.404601,-0.154516 0.885966,-0.252589 1.27388,-0.427919 0.150884,-1.617839 1.051173,-3.136548 2.861205,-4.180064 2.753748,-1.459442 5.890578,-1.217436 8.835567,-1.480962 0.148413,-0.01094 0.280176,-0.02117 0.411903,-0.03351 -0.04315,0.08184 -0.08862,0.164747 -0.124425,0.252589 -0.988906,1.695802 -2.574043,3.527778 -4.207157,4.575175 -1.087155,0.729544 -2.430322,1.283758 -3.766326,1.547283 -1.393614,0.262114 -2.607663,0.109714 -3.898195,-0.38488"
         style="fill:#e6e6e6;fill-opacity:1;fill-rule:evenodd;stroke:none;stroke-width:0.0352778"
         id="path56" /><path
         d="m 47.332131,120.84026 c 0.898102,2.0066 2.499925,4.21746 4.848931,4.36492 0.07412,0.20356 0.502849,1.1744 0.564974,1.32786 0.04784,0.20814 0.196391,0.43815 0.392747,0.34008 0.08615,-0.0325 0.181892,-0.14852 0.160267,-0.36195 -0.229729,-0.54222 -0.505178,-0.95991 -0.768526,-1.50813 0.215512,-3.69111 0,-6.39092 -1.412629,-9.43469 -1.601963,-3.50555 -3.819101,-5.51215 -5.174396,-6.49993 -0.17005,-0.14711 -0.356775,-0.26952 -0.553145,-0.3937 -0.306338,1.42452 -0.215389,3.64667 -0.0215,4.93007 0.354294,2.62149 0.919564,4.8888 1.963275,7.23547"
         style="fill:#e6e6e6;fill-opacity:1;fill-rule:evenodd;stroke:none;stroke-width:0.0352778"
         id="path58" /><path
         d="m 49.975777,106.00314 c 0.390243,2.14418 1.352833,4.31059 3.498145,5.24192 0.02399,0.22578 0.268323,1.26788 0.299438,1.42699 0,0.22048 0.0743,0.47131 0.289666,0.44379 0.06463,-0.0162 0.213042,-0.0709 0.222567,-0.29527 -0.08848,-0.55986 -0.251213,-1.20262 -0.361315,-1.81575 0.713387,-2.60562 1.103807,-4.9851 0.976736,-7.54239 -0.196215,-3.586339 -1.537053,-6.696781 -3.641866,-9.210322 -0.15808,-0.185209 -0.289807,-0.372181 -0.433388,-0.541514 -0.593795,1.233311 -0.98171,3.35033 -1.091812,4.612217 -0.218016,2.578809 -0.208386,5.167139 0.241829,7.680329"
         style="fill:#e6e6e6;fill-opacity:1;fill-rule:evenodd;stroke:none;stroke-width:0.0352778"
         id="path60" /><path
         d="m 55.384708,92.465994 c -0.05496,2.210152 0.469371,4.67748 2.32985,6.103408 -0.01432,0.219075 -0.0551,1.2954 -0.06696,1.443918 -0.03129,0.20214 -0.01436,0.46567 0.193887,0.50941 0.07662,0.006 0.208209,-0.0106 0.258515,-0.22507 0.04064,-0.558447 0.05994,-1.403702 0.08862,-2.007658 1.580339,-2.682522 2.423266,-5.593997 2.463906,-8.940095 0.0623,-3.861858 -0.898067,-6.31437 -1.659432,-7.865181 -0.100435,-0.208491 -0.203376,-0.417336 -0.306317,-0.620183 -0.835801,1.014589 -1.623624,2.945694 -1.980247,4.147256 -0.730356,2.408061 -1.257194,4.913842 -1.321823,7.454195"
         style="fill:#e6e6e6;fill-opacity:1;fill-rule:evenodd;stroke:none;stroke-width:0.0352778"
         id="path62" /><path
         d="m 63.578678,80.107129 c -0.481507,2.068336 -0.342442,5.112809 1.199585,6.357761 -0.05528,0.268112 -0.18923,1.194859 -0.206022,1.39312 -0.055,0.219075 -0.105304,0.438856 0.07179,0.5207 0.07415,0.02752 0.129399,0.02752 0.217876,-0.164394 0.09825,-0.575381 0.131727,-1.064684 0.229976,-1.656292 2.207613,-2.347384 3.455035,-4.673601 4.149408,-7.843662 0.69924,-3.318933 0.600992,-5.962297 0.29464,-7.816145 -0.03348,-0.224719 -0.09345,-0.450144 -0.155575,-0.681567 -1.939608,1.548342 -3.306904,3.588456 -4.470648,5.918554 -0.608118,1.2573 -1.101337,2.556933 -1.33103,3.971925"
         style="fill:#e6e6e6;fill-opacity:1;fill-rule:evenodd;stroke:none;stroke-width:0.0352778"
         id="path64" /><path
         d="m 56.830956,108.46588 c -0.177201,0.16439 -1.163603,1.10137 -1.403104,0.97578 -0.06699,-0.0547 -0.110102,-0.36724 -0.0048,-0.42757 0.378425,-0.30162 0.84762,-0.51681 1.223575,-0.8068 -0.121955,-1.79352 0.285115,-3.59904 1.913114,-5.31001 2.507086,-2.42499 5.825808,-3.240617 8.842728,-4.502503 0.136455,-0.06068 0.275343,-0.13723 0.426226,-0.192264 -0.02646,0.109714 -0.05027,0.219781 -0.08378,0.329142 -0.589104,2.078915 -1.781387,4.513795 -3.234937,6.154565 -0.941071,1.10243 -2.209942,2.15547 -3.531906,2.86349 -1.376645,0.75213 -2.69614,0.99202 -4.147079,0.91617"
         style="fill:#e6e6e6;fill-opacity:1;fill-rule:evenodd;stroke:none;stroke-width:0.0352778"
         id="path66" /><path
         d="m 54.747803,123.01655 c -0.136455,0.23601 -0.917117,1.51942 -1.173269,1.45345 -0.100612,0 -0.210573,-0.30657 -0.126929,-0.42722 0.332951,-0.42757 0.739881,-0.77964 1.032016,-1.22837 -0.50987,-1.64148 -0.268041,-4.00932 0.948231,-6.27451 1.941795,-3.30341 4.767334,-4.91525 7.513744,-7.22489 0.122097,-0.12029 0.241865,-0.22965 0.366431,-0.35172 0.01185,0.11113 0.02399,0.22543 0.01185,0.35737 -0.06463,2.27048 -0.651263,5.11245 -1.71443,7.24676 -0.68707,1.44709 -1.702435,2.89595 -2.866037,4.09081 -1.216413,1.22837 -2.492587,1.92017 -3.99161,2.35832"
         style="fill:#e6e6e6;fill-opacity:1;fill-rule:evenodd;stroke:none;stroke-width:0.0352778"
         id="path68" /><path
         d="m 56.112735,137.28394 c -0.09811,0.28505 -0.634576,1.80446 -0.905228,1.86549 -0.08848,-0.0109 -0.263348,-0.24341 -0.196391,-0.39617 0.22285,-0.50412 0.47184,-1.08514 0.680085,-1.61184 -0.921914,-0.87242 -1.240261,-3.32599 -0.493219,-5.8808 1.237898,-3.7518 3.996303,-6.57472 6.213441,-9.68552 0.10541,-0.14817 0.203693,-0.29669 0.311432,-0.44027 0.03348,0.11007 0.04798,0.22613 0.07179,0.33514 0.380753,2.18828 0.361597,5.09658 -0.234668,7.46549 -0.399909,1.58079 -1.103806,3.31787 -2.011257,4.81083 -0.938565,1.57409 -2.052179,2.65289 -3.435985,3.53765"
         style="fill:#e6e6e6;fill-opacity:1;fill-rule:evenodd;stroke:none;stroke-width:0.0352778"
         id="path70" /><path
         d="m 52.786852,153.9806 c 1.675941,1.09774 4.693038,1.92966 6.766702,0.57534 0.160408,0.12595 1.029546,0.6361 1.127795,0.73061 0.14358,0.14746 0.363925,0.2504 0.488491,0.0384 0.07415,-0.0889 0.114794,-0.23742 -0.02646,-0.40143 -0.428555,-0.30137 -0.912248,-0.4929 -1.374422,-0.78987 -1.580339,-3.28055 -3.282774,-5.49673 -5.883135,-7.1297 -2.978644,-1.90956 -5.461706,-1.94303 -7.063705,-1.94303 -0.227362,0 -0.440404,0.0109 -0.667921,0.0179 0.399909,3.24238 4.40091,7.51886 6.632653,8.90171"
         style="fill:#e6e6e6;fill-opacity:1;fill-rule:evenodd;stroke:none;stroke-width:0.0352778"
         id="path72" /><path
         d="m 61.050108,151.45189 c -0.01697,0.20246 -0.122238,1.13481 -0.270652,1.69404 -0.0478,0.16012 -0.06463,0.40707 -0.282645,0.31845 -0.09574,-0.0215 -0.177059,-0.20849 -0.172226,-0.30191 0.110102,-0.54793 0.193886,-1.17298 0.234526,-1.72723 -1.034344,-0.65402 -1.838995,-2.80282 -1.999403,-5.42964 0.179705,-3.9817 1.963561,-7.58677 3.395345,-11.33292 0.04315,-0.1651 0.09825,-0.34008 0.165241,-0.5147 0.0551,0.0861 0.09578,0.18591 0.153388,0.26846 0.955252,1.96815 1.683103,4.72299 1.742934,7.20725 0.0551,1.62811 -0.17459,3.51575 -0.653486,5.26987 -0.498157,1.78855 -1.242836,3.20985 -2.313022,4.54833"
         style="fill:#e6e6e6;fill-opacity:1;fill-rule:evenodd;stroke:none;stroke-width:0.0352778"
         id="path74" /><path
         d="m 61.912085,167.58198 c 1.929941,0.38555 4.556478,0.292 6.192062,-1.78153 0.411762,0.0599 1.082181,0.1699 1.51324,0.19745 0.117263,0.0111 0.210538,-0.0716 0.258516,-0.23068 0.03111,-0.10445 0,-0.24101 -0.196392,-0.34007 -0.486022,-0.11039 -0.979241,-0.0982 -1.498741,-0.19156 -2.176604,-2.54522 -4.233475,-3.98212 -7.190599,-4.51983 -3.428965,-0.61916 -6.335678,0.25259 -7.872872,0.8993 -0.213184,0.0765 -0.433388,0.17004 -0.624946,0.27436 0.555484,1.23874 2.166973,2.50694 3.167698,3.11644 1.922921,1.26615 3.912517,2.18835 6.252034,2.57612"
         style="fill:#e6e6e6;fill-opacity:1;fill-rule:evenodd;stroke:none;stroke-width:0.0352778"
         id="path76" /><path
         d="m 68.8272,162.19715 c 0.03334,0.22958 0.06699,1.11827 0.06699,1.71661 -0.01199,0.15808 0.03097,0.39014 -0.193922,0.39508 -0.103046,-0.005 -0.21784,-0.12661 -0.229834,-0.237 -0.03831,-0.55784 -0.01446,-1.1395 -0.110243,-1.71097 -1.14681,-0.36272 -2.66252,-2.10125 -3.366559,-4.49792 -0.804615,-3.8493 0.0743,-7.8106 0.493219,-11.86437 0.02879,-0.17459 0.02148,-0.3616 0.03362,-0.55767 0.07179,0.0762 0.162736,0.14703 0.232198,0.21911 1.403103,1.52989 2.806383,3.89886 3.471968,6.22501 0.459705,1.51941 0.706367,3.40152 0.694232,5.20456 -0.02148,1.89865 -0.394935,3.48411 -1.091671,5.10756"
         style="fill:#e6e6e6;fill-opacity:1;fill-rule:evenodd;stroke:none;stroke-width:0.0352778"
         id="path78" /><path
         d="m 79.678857,170.0291 c 0.09807,0.16548 0.234597,0.90494 0.383116,1.47958 0.04304,0.12707 0.126648,0.33542 -0.06703,0.41797 -0.103011,0.0395 -0.244475,-0.0441 -0.27305,-0.1301 -0.198967,-0.48394 -0.198967,-0.97716 -0.428625,-1.46085 -1.113473,0.2632 -3.050576,-1.14942 -4.321952,-3.00038 -1.75768,-3.18562 -1.946734,-6.9317 -2.629006,-10.7224 -0.02166,-0.18051 -0.07193,-0.33969 -0.107915,-0.5147 0.08625,0.0205 0.179706,0.0696 0.27298,0.0981 1.688112,0.85521 3.60359,2.35409 4.836795,4.19488 0.842786,1.19627 1.635478,2.84233 2.080684,4.50423 0.460022,1.73359 0.481189,3.39027 0.254,5.13363"
         style="fill:#e6e6e6;fill-opacity:1;fill-rule:evenodd;stroke:none;stroke-width:0.0352778"
         id="path80" /><path
         d="m 73.582539,177.10587 c 1.975273,-0.26348 4.549317,-1.17436 5.672279,-3.7087 0.395111,-0.1155 1.096786,-0.19805 1.522942,-0.3175 0.117475,-0.0217 0.182033,-0.14361 0.194027,-0.30773 0.0046,-0.0885 -0.06244,-0.22613 -0.263525,-0.25714 -0.498122,0.0717 -0.976841,0.22476 -1.534583,0.2847 -2.875986,-1.70505 -5.200897,-2.47329 -8.217959,-2.03521 -3.47666,0.49427 -5.995564,2.23876 -7.355558,3.34614 -0.198861,0.16398 -0.385586,0.30661 -0.565115,0.48218 0.840317,1.03228 2.717624,1.71703 3.823759,2.00697 2.183906,0.61529 4.333945,0.85135 6.723733,0.50629"
         style="fill:#e6e6e6;fill-opacity:1;fill-rule:evenodd;stroke:none;stroke-width:0.0352778"
         id="path82" /></g></g></svg>
