<?xml version="1.0" encoding="UTF-8" standalone="no"?>
<!-- Created with Inkscape (http://www.inkscape.org/) -->

<svg
   width="46.096352mm"
   height="107.7002mm"
   viewBox="0 0 46.096352 107.7002"
   version="1.1"
   id="svg1"
   xml:space="preserve"
   xmlns="http://www.w3.org/2000/svg"
   xmlns:svg="http://www.w3.org/2000/svg"><defs
     id="defs1" /><g
     id="layer1"
     transform="translate(-43.22745,-69.565072)"><g
       id="g2"
       transform="translate(-102.84592,0.01351523)"><path
         d="m 146.08116,175.25627 c 16.59114,-2.29277 28.6759,-15.33069 34.1877,-33.14636 2.25848,-7.36985 2.59362,-15.54336 1.79352,-24.10598 -1.46014,-15.26505 -8.47372,-28.528081 -18.70992,-38.197721 -0.0381,-0.04445 -0.0624,-0.05997 -0.072,-0.01729 -0.031,0.0441 -0.11465,0.09454 -0.16263,0.121356 -0.055,0.03245 -0.072,0.0053 -0.0339,0.07055 10.8592,9.939868 17.83644,25.736195 18.59527,41.709275 1.17369,22.80006 -9.90565,43.00749 -26.50843,49.95651 -2.78977,1.1744 -5.70125,2.07507 -8.74466,2.53436 -0.21061,0.27451 -0.34008,0.65375 -0.34502,1.07529"
         style="fill:#100f0d;fill-opacity:1;fill-rule:evenodd;stroke:none;stroke-width:0.0352778"
         id="path12" /><path
         d="m 187.45001,137.16329 c -1.36243,1.61361 -3.51261,3.19158 -5.83742,2.57846 -0.115,0.1845 -0.73766,1.07526 -0.81668,1.21179 -0.10513,0.16968 -0.30162,0.33408 -0.45508,0.19156 -0.0885,-0.066 -0.16969,-0.19156 -0.072,-0.40111 0.33338,-0.42157 0.67345,-0.84879 1.05833,-1.29928 0.68263,-3.62621 1.67887,-6.03391 3.76908,-8.47866 2.40877,-2.79894 4.88703,-4.05342 6.40997,-4.57553 0.22719,-0.066 0.42863,-0.121 0.64912,-0.18697 0.15275,1.39841 -0.49601,3.43393 -0.99872,4.60833 -0.98178,2.36926 -2.04717,4.45241 -3.70663,6.35141"
         style="fill:#100f0d;fill-opacity:1;fill-rule:evenodd;stroke:none;stroke-width:0.0352778"
         id="path14" /><path
         d="m 167.4782,86.174201 c 0.19155,0.07655 1.32185,0.372887 1.45803,0.141817 0.048,-0.06526 -0.0145,-0.284339 -0.11501,-0.301272 -0.41169,-0.04445 -0.87171,-0.0762 -1.27353,-0.15875 -0.72072,-2.293761 -2.75625,-3.291064 -4.6168,-3.675945 -2.23379,-0.448733 -4.69547,0.236361 -7.32896,0.603956 -0.13229,0.02752 -0.28046,0.03845 -0.40993,0.04445 0.0385,0.08678 0.10301,0.152047 0.16299,0.234597 1.10878,1.508478 2.82539,2.886428 4.51591,3.57117 1.12324,0.478014 2.48285,0.741186 3.8167,0.697089 1.39382,-0.03387 2.5788,-0.356306 3.7906,-1.157112"
         style="fill:#100f0d;fill-opacity:1;fill-rule:evenodd;stroke:none;stroke-width:0.0352778"
         id="path16" /><path
         d="m 163.11786,79.910279 c -0.0889,0.03245 -0.0935,0.0053 -0.25153,-0.09419 -0.32103,-0.290689 -0.58173,-0.471664 -0.9024,-0.762353 -1.79106,0.01235 -3.48898,-0.515055 -5.09588,-1.589264 -0.71085,-0.483658 -1.42452,-1.059744 -2.02071,-1.751189 -1.42946,-1.535289 -2.58128,-3.778955 -3.10797,-5.83565 -0.0289,-0.115711 -0.0476,-0.197556 -0.055,-0.312561 0.13406,0.05503 0.254,0.115005 0.38559,0.176036 2.89736,1.157111 5.68925,1.700036 8.01441,3.947936 1.57303,1.498248 2.39677,3.318581 2.06868,5.085645 0.35419,0.284692 0.73237,0.548217 1.07245,0.883003 0.16545,0.121003 -0.0141,0.246592 -0.1076,0.252589"
         style="fill:#100f0d;fill-opacity:1;fill-rule:evenodd;stroke:none;stroke-width:0.0352778"
         id="path18" /><path
         d="m 173.6317,95.788808 c 0.19156,0.104775 1.28834,0.669219 1.4485,0.4826 0.072,-0.0702 0.0385,-0.312561 -0.0621,-0.350309 -0.40464,-0.154516 -0.8883,-0.252589 -1.27142,-0.427919 -0.1531,-1.617839 -1.05339,-3.136548 -2.86385,-4.180064 -2.75378,-1.459442 -5.88997,-1.217436 -8.83532,-1.480962 -0.14852,-0.01094 -0.2801,-0.02117 -0.41204,-0.03351 0.0455,0.08184 0.0885,0.164747 0.127,0.252589 0.98637,1.695802 2.5714,3.527778 4.20687,4.575175 1.0848,0.729544 2.42817,1.283758 3.76167,1.547283 1.39842,0.262114 2.61268,0.109714 3.90067,-0.38488"
         style="fill:#100f0d;fill-opacity:1;fill-rule:evenodd;stroke:none;stroke-width:0.0352778"
         id="path20" /><path
         d="m 188.07231,120.84026 c -0.89747,2.0066 -2.49944,4.21746 -4.84611,4.36492 -0.0766,0.20356 -0.50483,1.1744 -0.5648,1.32786 -0.0504,0.20814 -0.19897,0.43815 -0.39546,0.34008 -0.0836,-0.0325 -0.18169,-0.14852 -0.16052,-0.36195 0.23283,-0.54222 0.50553,-0.95991 0.7687,-1.50813 -0.21272,-3.69111 0,-6.39092 1.41288,-9.43469 1.60196,-3.50555 3.81917,-5.51215 5.17454,-6.49993 0.16969,-0.14711 0.35666,-0.26952 0.55281,-0.3937 0.30903,1.42452 0.2159,3.64667 0.0243,4.93007 -0.35701,2.62149 -0.92216,4.8888 -1.96638,7.23547"
         style="fill:#100f0d;fill-opacity:1;fill-rule:evenodd;stroke:none;stroke-width:0.0352778"
         id="path22" /><path
         d="m 185.42894,106.00314 c -0.3877,2.14418 -1.35502,4.31059 -3.50061,5.24192 -0.0215,0.22578 -0.26529,1.26788 -0.29457,1.42699 0,0.22048 -0.0762,0.47131 -0.28963,0.44379 -0.067,-0.0162 -0.2152,-0.0709 -0.22472,-0.29527 0.0882,-0.55986 0.25118,-1.20262 0.36124,-1.81575 -0.71578,-2.60562 -1.10137,-4.9851 -0.97684,-7.54239 0.19861,-3.586339 1.53494,-6.696781 3.64208,-9.210322 0.16051,-0.185209 0.28963,-0.372181 0.43321,-0.541514 0.59408,1.233311 0.98178,3.35033 1.09185,4.612217 0.21801,2.578809 0.20849,5.167139 -0.24201,7.680329"
         style="fill:#100f0d;fill-opacity:1;fill-rule:evenodd;stroke:none;stroke-width:0.0352778"
         id="path24" /><path
         d="m 180.02262,92.465994 c 0.0529,2.210152 -0.47202,4.67748 -2.33221,6.103408 0.0169,0.219075 0.0526,1.2954 0.067,1.443918 0.0335,0.20214 0.0166,0.46567 -0.19403,0.50941 -0.0766,0.006 -0.20602,-0.0106 -0.25859,-0.22507 -0.0406,-0.558447 -0.0575,-1.403702 -0.0861,-2.007658 -1.58044,-2.682522 -2.42323,-5.593997 -2.46627,-8.940095 -0.0624,-3.861858 0.89782,-6.31437 1.65947,-7.865181 0.0977,-0.208491 0.2032,-0.417336 0.30868,-0.620183 0.83326,1.014589 1.62313,2.945694 1.98014,4.147256 0.72814,2.408061 1.25483,4.913842 1.32186,7.454195"
         style="fill:#100f0d;fill-opacity:1;fill-rule:evenodd;stroke:none;stroke-width:0.0352778"
         id="path26" /><path
         d="m 171.829,80.107129 c 0.47872,2.068336 0.33761,5.112809 -1.20226,6.357761 0.0554,0.268112 0.18909,1.194859 0.20814,1.39312 0.0529,0.219075 0.10301,0.438856 -0.0741,0.5207 -0.0744,0.02752 -0.12911,0.02752 -0.21801,-0.164394 -0.0981,-0.575381 -0.13159,-1.064684 -0.22966,-1.656292 -2.20522,-2.347384 -3.45511,-4.673601 -4.14479,-7.843662 -0.70379,-3.318933 -0.60572,-5.962297 -0.29951,-7.816145 0.0339,-0.224719 0.0935,-0.450144 0.15558,-0.681567 1.93957,1.548342 3.30694,3.588456 4.4704,5.918554 0.60854,1.2573 1.10137,2.556933 1.3342,3.971925"
         style="fill:#100f0d;fill-opacity:1;fill-rule:evenodd;stroke:none;stroke-width:0.0352778"
         id="path28" /><path
         d="m 178.57412,108.46588 c 0.17462,0.16439 1.16346,1.10137 1.40264,0.97578 0.0674,-0.0547 0.11042,-0.36724 0.005,-0.42757 -0.37606,-0.30162 -0.84737,-0.51681 -1.22096,-0.8068 0.11959,-1.79352 -0.28717,-3.59904 -1.91559,-5.31001 -2.50684,-2.42499 -5.82542,-3.240617 -8.84273,-4.502503 -0.13405,-0.06068 -0.27305,-0.13723 -0.42615,-0.192264 0.0261,0.109714 0.0501,0.219781 0.0811,0.329142 0.59407,2.078915 1.78399,4.513795 3.23744,6.154565 0.94121,1.10243 2.21015,2.15547 3.53201,2.86349 1.37654,0.75213 2.6984,0.99202 4.14726,0.91617"
         style="fill:#100f0d;fill-opacity:1;fill-rule:evenodd;stroke:none;stroke-width:0.0352778"
         id="path30" /><path
         d="m 180.65692,123.01655 c 0.13899,0.23601 0.91722,1.51942 1.1758,1.45345 0.0956,0 0.20603,-0.30657 0.12453,-0.42722 -0.33302,-0.42757 -0.73977,-0.77964 -1.0294,-1.22837 0.50729,-1.64148 0.26776,-4.00932 -0.95109,-6.27451 -1.94169,-3.30341 -4.76497,-4.91525 -7.51381,-7.22489 -0.11924,-0.12029 -0.2413,-0.22965 -0.36619,-0.35172 -0.012,0.11113 -0.0236,0.22543 -0.012,0.35737 0.0649,2.27048 0.65158,5.11245 1.71697,7.24676 0.68509,1.44709 1.70003,2.89595 2.86385,4.09081 1.21885,1.22837 2.49484,1.92017 3.99133,2.35832"
         style="fill:#100f0d;fill-opacity:1;fill-rule:evenodd;stroke:none;stroke-width:0.0352778"
         id="path32" /><path
         d="m 179.29237,137.28394 c 0.0981,0.28505 0.63465,1.80446 0.90488,1.86549 0.0885,-0.0109 0.26317,-0.24341 0.19649,-0.39617 -0.2226,-0.50412 -0.47166,-1.08514 -0.68015,-1.61184 0.92181,-0.87242 1.24036,-3.32599 0.49565,-5.8808 -1.24037,-3.7518 -3.99874,-6.57472 -6.21594,-9.68552 -0.10302,-0.14817 -0.20356,-0.29669 -0.31151,-0.44027 -0.0332,0.11007 -0.0452,0.22613 -0.0716,0.33514 -0.37818,2.18828 -0.3616,5.09658 0.2346,7.46549 0.40216,1.58079 1.10137,3.31787 2.01154,4.81083 0.94121,1.57409 2.0521,2.65289 3.43605,3.53765"
         style="fill:#100f0d;fill-opacity:1;fill-rule:evenodd;stroke:none;stroke-width:0.0352778"
         id="path34" /><path
         d="m 182.62048,153.9806 c -1.67817,1.09774 -4.69548,1.92966 -6.7691,0.57534 -0.15805,0.12595 -1.02941,0.6361 -1.12748,0.73061 -0.14393,0.14746 -0.36195,0.2504 -0.4886,0.0384 -0.072,-0.0889 -0.115,-0.23742 0.0286,-0.40143 0.42615,-0.30137 0.90981,-0.4929 1.37442,-0.78987 1.58044,-3.28055 3.2826,-5.49673 5.88045,-7.1297 2.97921,-1.90956 5.46206,-1.94303 7.06402,-1.94303 0.22719,0 0.43815,0.0109 0.67028,0.0179 -0.40216,3.24238 -4.40337,7.51886 -6.63257,8.90171"
         style="fill:#100f0d;fill-opacity:1;fill-rule:evenodd;stroke:none;stroke-width:0.0352778"
         id="path36" /><path
         d="m 174.35736,151.45189 c 0.0145,0.20246 0.11959,1.13481 0.26811,1.69404 0.048,0.16012 0.0646,0.40707 0.28505,0.31845 0.0935,-0.0215 0.17462,-0.20849 0.16968,-0.30191 -0.10759,-0.54793 -0.19367,-1.17298 -0.23459,-1.72723 1.03469,-0.65402 1.8415,-2.80282 1.99954,-5.42964 -0.17956,-3.9817 -1.96356,-7.58677 -3.39548,-11.33292 -0.043,-0.1651 -0.0981,-0.34008 -0.16299,-0.5147 -0.0547,0.0861 -0.10019,0.18591 -0.15522,0.26846 -0.95321,1.96815 -1.68099,4.72299 -1.74096,7.20725 -0.055,1.62811 0.17251,3.51575 0.65123,5.26987 0.49812,1.78855 1.24495,3.20985 2.31563,4.54833"
         style="fill:#100f0d;fill-opacity:1;fill-rule:evenodd;stroke:none;stroke-width:0.0352778"
         id="path38" /><path
         d="m 173.4927,167.58198 c -1.92969,0.38555 -4.55647,0.292 -6.1916,-1.78153 -0.41204,0.0599 -1.0802,0.1699 -1.5113,0.19745 -0.11712,0.0111 -0.21061,-0.0716 -0.26105,-0.23068 -0.031,-0.10445 0,-0.24101 0.19896,-0.34007 0.48366,-0.11039 0.97684,-0.0982 1.49896,-0.19156 2.17663,-2.54522 4.23333,-3.98212 7.19031,-4.51983 3.429,-0.61916 6.33554,0.25259 7.87083,0.8993 0.21519,0.0765 0.43356,0.17004 0.62265,0.27436 -0.55104,1.23874 -2.16464,2.50694 -3.16336,3.11644 -1.92511,1.26615 -3.91724,2.18835 -6.2544,2.57612"
         style="fill:#100f0d;fill-opacity:1;fill-rule:evenodd;stroke:none;stroke-width:0.0352778"
         id="path40" /><path
         d="m 166.57791,162.19715 c -0.0339,0.22958 -0.0674,1.11827 -0.0674,1.71661 0.0123,0.15808 -0.031,0.39014 0.19402,0.39508 0.10302,-0.005 0.21802,-0.12661 0.23002,-0.237 0.0384,-0.55784 0.0166,-1.1395 0.11006,-1.71097 1.14688,-0.36272 2.66524,-2.10125 3.36656,-4.49792 0.8068,-3.8493 -0.0765,-7.8106 -0.49318,-11.86437 -0.0286,-0.17459 -0.0215,-0.3616 -0.0335,-0.55767 -0.0691,0.0762 -0.16298,0.14703 -0.23001,0.21911 -1.403,1.52989 -2.80846,3.89886 -3.47168,6.22501 -0.45967,1.51941 -0.70627,3.40152 -0.69709,5.20456 0.0219,1.89865 0.39511,3.48411 1.0922,5.10756"
         style="fill:#100f0d;fill-opacity:1;fill-rule:evenodd;stroke:none;stroke-width:0.0352778"
         id="path42" /><path
         d="m 155.72611,170.0291 c -0.0956,0.16548 -0.2346,0.90494 -0.38312,1.47958 -0.0406,0.12707 -0.12418,0.33542 0.0674,0.41797 0.10266,0.0395 0.24624,-0.0441 0.27517,-0.1301 0.19614,-0.48394 0.19614,-0.97716 0.42615,-1.46085 1.11584,0.2632 3.05047,-1.14942 4.32189,-3.00038 1.75753,-3.18562 1.94662,-6.9317 2.62925,-10.7224 0.0212,-0.18051 0.0716,-0.33969 0.1076,-0.5147 -0.0864,0.0205 -0.17957,0.0696 -0.27305,0.0981 -1.68805,0.85521 -3.60363,2.35409 -4.83906,4.19488 -0.8382,1.19627 -1.63301,2.84233 -2.07821,4.50423 -0.46002,1.73359 -0.48119,3.39027 -0.254,5.13363"
         style="fill:#100f0d;fill-opacity:1;fill-rule:evenodd;stroke:none;stroke-width:0.0352778"
         id="path44" /><path
         d="m 161.82211,177.10587 c -1.97273,-0.26348 -4.54907,-1.17436 -5.66985,-3.7087 -0.39758,-0.1155 -1.0989,-0.19805 -1.52505,-0.3175 -0.11748,-0.0217 -0.18204,-0.14361 -0.19403,-0.30773 -0.005,-0.0885 0.06,-0.22613 0.26564,-0.25714 0.49812,0.0717 0.97472,0.22476 1.53494,0.2847 2.87337,-1.70505 5.19853,-2.47329 8.21549,-2.03521 3.47909,0.49427 5.99545,2.23876 7.35541,3.34614 0.1965,0.16398 0.38559,0.30661 0.56515,0.48218 -0.84031,1.03228 -2.71533,1.71703 -3.82376,2.00697 -2.18404,0.61529 -4.3314,0.85135 -6.72394,0.50629"
         style="fill:#100f0d;fill-opacity:1;fill-rule:evenodd;stroke:none;stroke-width:0.0352778"
         id="path46" /></g></g></svg>
