<?xml version="1.0" encoding="UTF-8" standalone="no"?>
<!-- Created with Friction - https://friction.graphics -->

<svg xmlns:xlink="http://www.w3.org/1999/xlink" viewBox="0 0 1000 600" xmlns="http://www.w3.org/2000/svg">
 <g transform="translate(500 300)">
  <g transform="translate(0.77808 0)">
   <g transform="rotate(0)">
    <g transform="scale(1 1)">
     <g transform="skewX(0) skewY(0)">
      <g opacity="1" transform="translate(-500 -300)">
       <rect width="999.735" height="599.735" stroke="rgba(1, 1, 1, 1)" y="0.132292" stroke-width="1" x="0.132292" stroke-linejoin="miter" stroke-linecap="butt" fill="rgba(0, 0, 0, 1)" rx="0" ry="0" id="crno"/>
      </g>
     </g>
    </g>
   </g>
  </g>
 </g>
 <g transform="translate(497.707 -18.1934)">
  <g transform="translate(2.29297 380)">
   <g transform="rotate(0)">
    <g transform="scale(0.3 0.3)">
     <g transform="skewX(0) skewY(0)">
      <g opacity="1" transform="translate(-497.707 18.1934)">
       <g stroke="none" font-size="72" stroke-width="10" stroke-linejoin="round" stroke-linecap="round" text-anchor="start" fill="rgba(255, 255, 255, 0.924376)" font-family="Arial" id="Text">
        <text letter-spacing="0em" word-spacing="0em">
         <tspan x="0">Behind every mask lies a story.</tspan>
        </text>
       </g>
      </g>
     </g>
    </g>
   </g>
  </g>
 </g>
 <g transform="translate(500 247.288)">
  <g transform="translate(0 49.9998)">
   <g transform="rotate(0)">
    <g transform="scale(1 1)">
     <g transform="skewX(0) skewY(0)">
      <g opacity="1" transform="translate(-500 -247.288)">
       <g id="Group1">
        <g transform="translate(500 250)">
         <g transform="translate(0 0)">
          <g transform="rotate(0)">
           <g transform="scale(1 1)">
            <g transform="skewX(0) skewY(0)">
             <g opacity="1" transform="translate(-500 -250)">
              <path stroke="none" d="M522.404 229.274C519.266 229.274 516.567 229.791 514.309 230.824C512.089 231.858 510.367 233.293 509.142 235.13C507.956 236.929 507.362 239.034 507.362 241.446C507.362 243.666 507.802 245.618 508.683 247.302C509.563 248.948 510.903 250.287 512.702 251.321C514.539 252.316 516.854 253.004 519.648 253.387C519.648 253.387 523.61 253.904 523.61 253.904C524.873 254.057 525.83 254.344 526.481 254.765C527.169 255.148 527.629 255.645 527.859 256.258C528.127 256.832 528.26 257.483 528.26 258.21C528.26 259.665 527.744 260.832 526.711 261.712C525.677 262.592 524.088 263.033 521.945 263.033C519.993 263.033 518.156 262.65 516.434 261.884C514.75 261.119 513.238 259.971 511.898 258.44C511.898 258.44 506.157 264.238 506.157 264.238C507.879 266.114 509.965 267.664 512.415 268.888C514.903 270.113 517.888 270.726 521.371 270.726C524.701 270.726 527.533 270.171 529.868 269.061C532.203 267.951 533.963 266.42 535.15 264.468C536.375 262.516 536.987 260.258 536.987 257.693C536.987 255.397 536.547 253.445 535.667 251.837C534.786 250.23 533.447 248.928 531.648 247.933C529.849 246.938 527.571 246.23 524.816 245.809C524.816 245.809 520.855 245.177 520.855 245.177C519.745 244.986 518.826 244.737 518.099 244.431C517.41 244.125 516.893 243.685 516.548 243.111C516.242 242.537 516.089 241.79 516.089 240.872C516.089 239.647 516.568 238.69 517.525 238.001C518.481 237.312 519.936 236.967 521.888 236.967C523.954 236.967 525.658 237.331 526.997 238.058C528.375 238.747 529.543 239.646 530.499 240.756C530.499 240.756 536.298 234.9 536.298 234.9C534.652 233.101 532.681 231.724 530.385 230.767C528.088 229.772 525.428 229.274 522.404 229.274C522.404 229.274 522.404 229.274 522.404 229.274ZM344.64 229.963C344.64 229.963 344.64 253.617 344.64 253.617C344.64 257.559 345.157 260.794 346.191 263.32C347.224 265.846 348.889 267.721 351.185 268.946C353.482 270.132 356.544 270.726 360.371 270.726C364.199 270.726 367.261 270.132 369.557 268.946C371.854 267.721 373.519 265.846 374.552 263.32C375.586 260.794 376.103 257.559 376.103 253.617C376.103 253.617 376.103 229.963 376.103 229.963C376.103 229.963 367.605 229.963 367.605 229.963C367.605 229.963 367.605 254.535 367.605 254.535C367.605 256.411 367.356 257.981 366.859 259.244C366.361 260.468 365.577 261.406 364.505 262.056C363.471 262.669 362.094 262.975 360.371 262.975C358.649 262.975 357.252 262.669 356.18 262.056C355.109 261.406 354.324 260.468 353.826 259.244C353.367 257.981 353.138 256.411 353.138 254.535C353.138 254.535 353.138 229.963 353.138 229.963C353.138 229.963 344.64 229.963 344.64 229.963ZM383.88 229.963C383.88 229.963 383.88 270.037 383.88 270.037C383.88 270.037 392.09 270.037 392.09 270.037C392.09 270.037 392.09 251.435 392.09 251.435C392.09 251.435 392.09 243.053 392.09 243.053C392.09 243.053 392.262 243.053 392.262 243.053C392.262 243.053 396.109 251.091 396.109 251.091C396.109 251.091 407.074 270.037 407.074 270.037C407.074 270.037 416.605 270.037 416.605 270.037C416.605 270.037 416.605 229.963 416.605 229.963C416.605 229.963 408.395 229.963 408.395 229.963C408.395 229.963 408.395 248.565 408.395 248.565C408.395 248.565 408.395 256.947 408.395 256.947C408.395 256.947 408.223 256.947 408.223 256.947C408.223 256.947 404.376 248.909 404.376 248.909C404.376 248.909 393.41 229.963 393.41 229.963C393.41 229.963 383.88 229.963 383.88 229.963ZM424.693 229.963C424.693 229.963 424.693 270.037 424.693 270.037C424.693 270.037 432.903 270.037 432.903 270.037C432.903 270.037 432.903 249.942 432.903 249.942C432.903 249.942 432.903 243.34 432.903 243.34C432.903 243.34 433.075 243.34 433.075 243.34C433.075 243.34 436.119 249.656 436.119 249.656C436.119 249.656 443.754 263.779 443.754 263.779C443.754 263.779 451.563 249.598 451.563 249.598C451.563 249.598 454.491 243.742 454.491 243.742C454.491 243.742 454.663 243.742 454.663 243.742C454.663 243.742 454.663 249.942 454.663 249.942C454.663 249.942 454.663 270.037 454.663 270.037C454.663 270.037 462.873 270.037 462.873 270.037C462.873 270.037 462.873 229.963 462.873 229.963C462.873 229.963 453.572 229.963 453.572 229.963C453.572 229.963 448.29 240.182 448.29 240.182C448.29 240.182 443.869 248.737 443.869 248.737C443.869 248.737 443.754 248.737 443.754 248.737C443.754 248.737 439.276 240.182 439.276 240.182C439.276 240.182 433.937 229.963 433.937 229.963C433.937 229.963 424.693 229.963 424.693 229.963ZM480.588 229.963C480.588 229.963 467.383 270.037 467.383 270.037C467.383 270.037 476.225 270.037 476.225 270.037C476.225 270.037 479.095 260.507 479.095 260.507C479.095 260.507 492.473 260.507 492.473 260.507C492.473 260.507 495.343 270.037 495.343 270.037C495.343 270.037 504.414 270.037 504.414 270.037C504.414 270.037 491.382 229.963 491.382 229.963C491.382 229.963 480.588 229.963 480.588 229.963ZM542.142 229.963C542.142 229.963 542.142 270.037 542.142 270.037C542.142 270.037 550.869 270.037 550.869 270.037C550.869 270.037 550.869 258.899 550.869 258.899C550.869 258.899 556.093 252.584 556.093 252.584C556.093 252.584 566.714 270.037 566.714 270.037C566.714 270.037 576.991 270.037 576.991 270.037C576.991 270.037 562.294 246.44 562.294 246.44C562.294 246.44 575.786 229.963 575.786 229.963C575.786 229.963 565.911 229.963 565.911 229.963C565.911 229.963 556.897 241.273 556.897 241.273C556.897 241.273 551.213 249.024 551.213 249.024C551.213 249.024 550.869 249.024 550.869 249.024C550.869 249.024 550.869 241.273 550.869 241.273C550.869 241.273 550.869 229.963 550.869 229.963C550.869 229.963 542.142 229.963 542.142 229.963ZM582.656 229.963C582.656 229.963 582.656 270.037 582.656 270.037C582.656 270.037 588.111 270.037 588.111 270.037C588.111 270.037 609.928 270.037 609.928 270.037C609.928 270.037 615.382 270.037 615.382 270.037C615.382 270.037 615.382 262.286 615.382 262.286C615.382 262.286 609.928 262.286 609.928 262.286C609.928 262.286 591.384 262.286 591.384 262.286C591.384 262.286 591.384 253.617 591.384 253.617C591.384 253.617 607.286 253.617 607.286 253.617C607.286 253.617 612.741 253.617 612.741 253.617C612.741 253.617 612.741 245.923 612.741 245.923C612.741 245.923 607.286 245.923 607.286 245.923C607.286 245.923 591.384 245.923 591.384 245.923C591.384 245.923 591.384 237.714 591.384 237.714C591.384 237.714 609.928 237.714 609.928 237.714C609.928 237.714 615.382 237.714 615.382 237.714C615.382 237.714 615.382 229.963 615.382 229.963C615.382 229.963 609.928 229.963 609.928 229.963C609.928 229.963 588.111 229.963 588.111 229.963C588.111 229.963 582.656 229.963 582.656 229.963ZM622.634 229.963C622.634 229.963 622.634 270.037 622.634 270.037C622.634 270.037 637.734 270.037 637.734 270.037C641.294 270.037 644.394 269.29 647.035 267.798C649.676 266.305 651.723 264.085 653.178 261.138C654.632 258.153 655.359 254.44 655.359 250C655.359 245.56 654.632 241.866 653.178 238.919C651.723 235.934 649.676 233.695 647.035 232.202C644.394 230.71 641.294 229.963 637.734 229.963C637.734 229.963 622.634 229.963 622.634 229.963ZM631.361 237.714C631.361 237.714 637.734 237.714 637.734 237.714C639.457 237.714 640.949 238.039 642.212 238.69C643.475 239.341 644.432 240.336 645.083 241.675C645.772 243.015 646.116 244.756 646.116 246.9C646.116 246.9 646.116 253.1 646.116 253.1C646.116 255.205 645.771 256.947 645.083 258.325C644.432 259.664 643.475 260.659 642.212 261.31C640.949 261.961 639.457 262.286 637.734 262.286C637.734 262.286 631.361 262.286 631.361 262.286C631.361 262.286 631.361 237.714 631.361 237.714ZM485.583 237.886C485.583 237.886 485.87 237.886 485.87 237.886C485.87 237.886 487.88 244.775 487.88 244.775C487.88 244.775 490.348 253.1 490.348 253.1C490.348 253.1 481.162 253.1 481.162 253.1C481.162 253.1 483.631 244.775 483.631 244.775C483.631 244.775 485.583 237.886 485.583 237.886Z" stroke-width="0.264582" stroke-linejoin="miter" fill-rule="evenodd" stroke-linecap="butt" fill="rgba(255, 255, 255, 1)" id="e_blue_0"/>
             </g>
            </g>
           </g>
          </g>
         </g>
        </g>
       </g>
      </g>
     </g>
    </g>
   </g>
  </g>
 </g>
 <g transform="translate(500 245)">
  <g>
   <animateTransform attributeName="transform" keyTimes="0;0.002;0.66;0.998;1" repeatCount="indefinite" type="translate" keySplines="0 0 1 1;0 0 1 1;0 0 1 1;0 0 1 1" values="-1433.8 170;-1433.8 170;459.902 170;1432.66 170;1432.66 170" dur="10s" calcMode="spline"/>
   <g transform="rotate(0)">
    <g transform="scale(6 6)">
     <g transform="skewX(0) skewY(0)">
      <g opacity="1" transform="translate(-500 -245)">
       <g id="Group4">
        <g transform="translate(500 250)">
         <g transform="translate(0 0)">
          <g transform="rotate(0)">
           <g transform="scale(1 1)">
            <g transform="skewX(0) skewY(0)">
             <g opacity="1" transform="translate(-500 -250)">
              <path stroke="none" d="M522.404 229.274C519.266 229.274 516.567 229.791 514.309 230.824C512.089 231.858 510.367 233.293 509.142 235.13C507.956 236.929 507.362 239.034 507.362 241.446C507.362 243.666 507.802 245.618 508.683 247.302C509.563 248.948 510.903 250.287 512.702 251.321C514.539 252.316 516.854 253.004 519.648 253.387C519.648 253.387 523.61 253.904 523.61 253.904C524.873 254.057 525.83 254.344 526.481 254.765C527.169 255.148 527.629 255.645 527.859 256.258C528.127 256.832 528.26 257.483 528.26 258.21C528.26 259.665 527.744 260.832 526.711 261.712C525.677 262.592 524.088 263.033 521.945 263.033C519.993 263.033 518.156 262.65 516.434 261.884C514.75 261.119 513.238 259.971 511.898 258.44C511.898 258.44 506.157 264.238 506.157 264.238C507.879 266.114 509.965 267.664 512.415 268.888C514.903 270.113 517.888 270.726 521.371 270.726C524.701 270.726 527.533 270.171 529.868 269.061C532.203 267.951 533.963 266.42 535.15 264.468C536.375 262.516 536.987 260.258 536.987 257.693C536.987 255.397 536.547 253.445 535.667 251.837C534.786 250.23 533.447 248.928 531.648 247.933C529.849 246.938 527.571 246.23 524.816 245.809C524.816 245.809 520.855 245.177 520.855 245.177C519.745 244.986 518.826 244.737 518.099 244.431C517.41 244.125 516.893 243.685 516.548 243.111C516.242 242.537 516.089 241.79 516.089 240.872C516.089 239.647 516.568 238.69 517.525 238.001C518.481 237.312 519.936 236.967 521.888 236.967C523.954 236.967 525.658 237.331 526.997 238.058C528.375 238.747 529.543 239.646 530.499 240.756C530.499 240.756 536.298 234.9 536.298 234.9C534.652 233.101 532.681 231.724 530.385 230.767C528.088 229.772 525.428 229.274 522.404 229.274C522.404 229.274 522.404 229.274 522.404 229.274ZM344.64 229.963C344.64 229.963 344.64 253.617 344.64 253.617C344.64 257.559 345.157 260.794 346.191 263.32C347.224 265.846 348.889 267.721 351.185 268.946C353.482 270.132 356.544 270.726 360.371 270.726C364.199 270.726 367.261 270.132 369.557 268.946C371.854 267.721 373.519 265.846 374.552 263.32C375.586 260.794 376.103 257.559 376.103 253.617C376.103 253.617 376.103 229.963 376.103 229.963C376.103 229.963 367.605 229.963 367.605 229.963C367.605 229.963 367.605 254.535 367.605 254.535C367.605 256.411 367.356 257.981 366.859 259.244C366.361 260.468 365.577 261.406 364.505 262.056C363.471 262.669 362.094 262.975 360.371 262.975C358.649 262.975 357.252 262.669 356.18 262.056C355.109 261.406 354.324 260.468 353.826 259.244C353.367 257.981 353.138 256.411 353.138 254.535C353.138 254.535 353.138 229.963 353.138 229.963C353.138 229.963 344.64 229.963 344.64 229.963ZM383.88 229.963C383.88 229.963 383.88 270.037 383.88 270.037C383.88 270.037 392.09 270.037 392.09 270.037C392.09 270.037 392.09 251.435 392.09 251.435C392.09 251.435 392.09 243.053 392.09 243.053C392.09 243.053 392.262 243.053 392.262 243.053C392.262 243.053 396.109 251.091 396.109 251.091C396.109 251.091 407.074 270.037 407.074 270.037C407.074 270.037 416.605 270.037 416.605 270.037C416.605 270.037 416.605 229.963 416.605 229.963C416.605 229.963 408.395 229.963 408.395 229.963C408.395 229.963 408.395 248.565 408.395 248.565C408.395 248.565 408.395 256.947 408.395 256.947C408.395 256.947 408.223 256.947 408.223 256.947C408.223 256.947 404.376 248.909 404.376 248.909C404.376 248.909 393.41 229.963 393.41 229.963C393.41 229.963 383.88 229.963 383.88 229.963ZM424.693 229.963C424.693 229.963 424.693 270.037 424.693 270.037C424.693 270.037 432.903 270.037 432.903 270.037C432.903 270.037 432.903 249.942 432.903 249.942C432.903 249.942 432.903 243.34 432.903 243.34C432.903 243.34 433.075 243.34 433.075 243.34C433.075 243.34 436.119 249.656 436.119 249.656C436.119 249.656 443.754 263.779 443.754 263.779C443.754 263.779 451.563 249.598 451.563 249.598C451.563 249.598 454.491 243.742 454.491 243.742C454.491 243.742 454.663 243.742 454.663 243.742C454.663 243.742 454.663 249.942 454.663 249.942C454.663 249.942 454.663 270.037 454.663 270.037C454.663 270.037 462.873 270.037 462.873 270.037C462.873 270.037 462.873 229.963 462.873 229.963C462.873 229.963 453.572 229.963 453.572 229.963C453.572 229.963 448.29 240.182 448.29 240.182C448.29 240.182 443.869 248.737 443.869 248.737C443.869 248.737 443.754 248.737 443.754 248.737C443.754 248.737 439.276 240.182 439.276 240.182C439.276 240.182 433.937 229.963 433.937 229.963C433.937 229.963 424.693 229.963 424.693 229.963ZM480.588 229.963C480.588 229.963 467.383 270.037 467.383 270.037C467.383 270.037 476.225 270.037 476.225 270.037C476.225 270.037 479.095 260.507 479.095 260.507C479.095 260.507 492.473 260.507 492.473 260.507C492.473 260.507 495.343 270.037 495.343 270.037C495.343 270.037 504.414 270.037 504.414 270.037C504.414 270.037 491.382 229.963 491.382 229.963C491.382 229.963 480.588 229.963 480.588 229.963ZM542.142 229.963C542.142 229.963 542.142 270.037 542.142 270.037C542.142 270.037 550.869 270.037 550.869 270.037C550.869 270.037 550.869 258.899 550.869 258.899C550.869 258.899 556.093 252.584 556.093 252.584C556.093 252.584 566.714 270.037 566.714 270.037C566.714 270.037 576.991 270.037 576.991 270.037C576.991 270.037 562.294 246.44 562.294 246.44C562.294 246.44 575.786 229.963 575.786 229.963C575.786 229.963 565.911 229.963 565.911 229.963C565.911 229.963 556.897 241.273 556.897 241.273C556.897 241.273 551.213 249.024 551.213 249.024C551.213 249.024 550.869 249.024 550.869 249.024C550.869 249.024 550.869 241.273 550.869 241.273C550.869 241.273 550.869 229.963 550.869 229.963C550.869 229.963 542.142 229.963 542.142 229.963ZM582.656 229.963C582.656 229.963 582.656 270.037 582.656 270.037C582.656 270.037 588.111 270.037 588.111 270.037C588.111 270.037 609.928 270.037 609.928 270.037C609.928 270.037 615.382 270.037 615.382 270.037C615.382 270.037 615.382 262.286 615.382 262.286C615.382 262.286 609.928 262.286 609.928 262.286C609.928 262.286 591.384 262.286 591.384 262.286C591.384 262.286 591.384 253.617 591.384 253.617C591.384 253.617 607.286 253.617 607.286 253.617C607.286 253.617 612.741 253.617 612.741 253.617C612.741 253.617 612.741 245.923 612.741 245.923C612.741 245.923 607.286 245.923 607.286 245.923C607.286 245.923 591.384 245.923 591.384 245.923C591.384 245.923 591.384 237.714 591.384 237.714C591.384 237.714 609.928 237.714 609.928 237.714C609.928 237.714 615.382 237.714 615.382 237.714C615.382 237.714 615.382 229.963 615.382 229.963C615.382 229.963 609.928 229.963 609.928 229.963C609.928 229.963 588.111 229.963 588.111 229.963C588.111 229.963 582.656 229.963 582.656 229.963ZM622.634 229.963C622.634 229.963 622.634 270.037 622.634 270.037C622.634 270.037 637.734 270.037 637.734 270.037C641.294 270.037 644.394 269.29 647.035 267.798C649.676 266.305 651.723 264.085 653.178 261.138C654.632 258.153 655.359 254.44 655.359 250C655.359 245.56 654.632 241.866 653.178 238.919C651.723 235.934 649.676 233.695 647.035 232.202C644.394 230.71 641.294 229.963 637.734 229.963C637.734 229.963 622.634 229.963 622.634 229.963ZM631.361 237.714C631.361 237.714 637.734 237.714 637.734 237.714C639.457 237.714 640.949 238.039 642.212 238.69C643.475 239.341 644.432 240.336 645.083 241.675C645.772 243.015 646.116 244.756 646.116 246.9C646.116 246.9 646.116 253.1 646.116 253.1C646.116 255.205 645.771 256.947 645.083 258.325C644.432 259.664 643.475 260.659 642.212 261.31C640.949 261.961 639.457 262.286 637.734 262.286C637.734 262.286 631.361 262.286 631.361 262.286C631.361 262.286 631.361 237.714 631.361 237.714ZM485.583 237.886C485.583 237.886 485.87 237.886 485.87 237.886C485.87 237.886 487.88 244.775 487.88 244.775C487.88 244.775 490.348 253.1 490.348 253.1C490.348 253.1 481.162 253.1 481.162 253.1C481.162 253.1 483.631 244.775 483.631 244.775C483.631 244.775 485.583 237.886 485.583 237.886Z" stroke-width="0.264582" stroke-linejoin="miter" fill-rule="evenodd" stroke-linecap="butt" fill="rgba(255, 255, 255, 0.0798352)" id="e_blue_0"/>
             </g>
            </g>
           </g>
          </g>
         </g>
        </g>
       </g>
      </g>
     </g>
    </g>
   </g>
  </g>
 </g>
 <g transform="translate(500 247.288)">
  <g transform="translate(0.000100356 200.232)">
   <g transform="rotate(0)">
    <g>
     <animateTransform attributeName="transform" keyTimes="0;0.04;0.958;1" repeatCount="indefinite" type="scale" keySplines="0 0 1 1;0 0 1 1;0 0 1 1" values="2 1;2 1;2.5 1;2.5 1" dur="10s" calcMode="spline"/>
     <g>
      <animateTransform attributeName="transform" keyTimes="0;0.04;0.958;1" repeatCount="indefinite" type="scale" keySplines="0 0 1 1;0 0 1 1;0 0 1 1" values="1 2;1 2;1 2.5;1 2.5" dur="10s" calcMode="spline"/>
      <g transform="skewX(0) skewY(0)">
       <g opacity="1" transform="translate(-500 -247.288)">
        <g id="Group3">
         <g transform="translate(500 250)">
          <g transform="translate(0 0)">
           <g transform="rotate(0)">
            <g transform="scale(1 1)">
             <g transform="skewX(0) skewY(0)">
              <g opacity="1" transform="translate(-500 -250)">
               <path stroke="rgba(255, 255, 255, 0.0701762)" d="M522.404 229.274C519.266 229.274 516.567 229.791 514.309 230.824C512.089 231.858 510.367 233.293 509.142 235.13C507.956 236.929 507.362 239.034 507.362 241.446C507.362 243.666 507.802 245.618 508.683 247.302C509.563 248.948 510.903 250.287 512.702 251.321C514.539 252.316 516.854 253.004 519.648 253.387C519.648 253.387 523.61 253.904 523.61 253.904C524.873 254.057 525.83 254.344 526.481 254.765C527.169 255.148 527.629 255.645 527.859 256.258C528.127 256.832 528.26 257.483 528.26 258.21C528.26 259.665 527.744 260.832 526.711 261.712C525.677 262.592 524.088 263.033 521.945 263.033C519.993 263.033 518.156 262.65 516.434 261.884C514.75 261.119 513.238 259.971 511.898 258.44C511.898 258.44 506.157 264.238 506.157 264.238C507.879 266.114 509.965 267.664 512.415 268.888C514.903 270.113 517.888 270.726 521.371 270.726C524.701 270.726 527.533 270.171 529.868 269.061C532.203 267.951 533.963 266.42 535.15 264.468C536.375 262.516 536.987 260.258 536.987 257.693C536.987 255.397 536.547 253.445 535.667 251.837C534.786 250.23 533.447 248.928 531.648 247.933C529.849 246.938 527.571 246.23 524.816 245.809C524.816 245.809 520.855 245.177 520.855 245.177C519.745 244.986 518.826 244.737 518.099 244.431C517.41 244.125 516.893 243.685 516.548 243.111C516.242 242.537 516.089 241.79 516.089 240.872C516.089 239.647 516.568 238.69 517.525 238.001C518.481 237.312 519.936 236.967 521.888 236.967C523.954 236.967 525.658 237.331 526.997 238.058C528.375 238.747 529.543 239.646 530.499 240.756C530.499 240.756 536.298 234.9 536.298 234.9C534.652 233.101 532.681 231.724 530.385 230.767C528.088 229.772 525.428 229.274 522.404 229.274C522.404 229.274 522.404 229.274 522.404 229.274ZM344.64 229.963C344.64 229.963 344.64 253.617 344.64 253.617C344.64 257.559 345.157 260.794 346.191 263.32C347.224 265.846 348.889 267.721 351.185 268.946C353.482 270.132 356.544 270.726 360.371 270.726C364.199 270.726 367.261 270.132 369.557 268.946C371.854 267.721 373.519 265.846 374.552 263.32C375.586 260.794 376.103 257.559 376.103 253.617C376.103 253.617 376.103 229.963 376.103 229.963C376.103 229.963 367.605 229.963 367.605 229.963C367.605 229.963 367.605 254.535 367.605 254.535C367.605 256.411 367.356 257.981 366.859 259.244C366.361 260.468 365.577 261.406 364.505 262.056C363.471 262.669 362.094 262.975 360.371 262.975C358.649 262.975 357.252 262.669 356.18 262.056C355.109 261.406 354.324 260.468 353.826 259.244C353.367 257.981 353.138 256.411 353.138 254.535C353.138 254.535 353.138 229.963 353.138 229.963C353.138 229.963 344.64 229.963 344.64 229.963ZM383.88 229.963C383.88 229.963 383.88 270.037 383.88 270.037C383.88 270.037 392.09 270.037 392.09 270.037C392.09 270.037 392.09 251.435 392.09 251.435C392.09 251.435 392.09 243.053 392.09 243.053C392.09 243.053 392.262 243.053 392.262 243.053C392.262 243.053 396.109 251.091 396.109 251.091C396.109 251.091 407.074 270.037 407.074 270.037C407.074 270.037 416.605 270.037 416.605 270.037C416.605 270.037 416.605 229.963 416.605 229.963C416.605 229.963 408.395 229.963 408.395 229.963C408.395 229.963 408.395 248.565 408.395 248.565C408.395 248.565 408.395 256.947 408.395 256.947C408.395 256.947 408.223 256.947 408.223 256.947C408.223 256.947 404.376 248.909 404.376 248.909C404.376 248.909 393.41 229.963 393.41 229.963C393.41 229.963 383.88 229.963 383.88 229.963ZM424.693 229.963C424.693 229.963 424.693 270.037 424.693 270.037C424.693 270.037 432.903 270.037 432.903 270.037C432.903 270.037 432.903 249.942 432.903 249.942C432.903 249.942 432.903 243.34 432.903 243.34C432.903 243.34 433.075 243.34 433.075 243.34C433.075 243.34 436.119 249.656 436.119 249.656C436.119 249.656 443.754 263.779 443.754 263.779C443.754 263.779 451.563 249.598 451.563 249.598C451.563 249.598 454.491 243.742 454.491 243.742C454.491 243.742 454.663 243.742 454.663 243.742C454.663 243.742 454.663 249.942 454.663 249.942C454.663 249.942 454.663 270.037 454.663 270.037C454.663 270.037 462.873 270.037 462.873 270.037C462.873 270.037 462.873 229.963 462.873 229.963C462.873 229.963 453.572 229.963 453.572 229.963C453.572 229.963 448.29 240.182 448.29 240.182C448.29 240.182 443.869 248.737 443.869 248.737C443.869 248.737 443.754 248.737 443.754 248.737C443.754 248.737 439.276 240.182 439.276 240.182C439.276 240.182 433.937 229.963 433.937 229.963C433.937 229.963 424.693 229.963 424.693 229.963ZM480.588 229.963C480.588 229.963 467.383 270.037 467.383 270.037C467.383 270.037 476.225 270.037 476.225 270.037C476.225 270.037 479.095 260.507 479.095 260.507C479.095 260.507 492.473 260.507 492.473 260.507C492.473 260.507 495.343 270.037 495.343 270.037C495.343 270.037 504.414 270.037 504.414 270.037C504.414 270.037 491.382 229.963 491.382 229.963C491.382 229.963 480.588 229.963 480.588 229.963ZM542.142 229.963C542.142 229.963 542.142 270.037 542.142 270.037C542.142 270.037 550.869 270.037 550.869 270.037C550.869 270.037 550.869 258.899 550.869 258.899C550.869 258.899 556.093 252.584 556.093 252.584C556.093 252.584 566.714 270.037 566.714 270.037C566.714 270.037 576.991 270.037 576.991 270.037C576.991 270.037 562.294 246.44 562.294 246.44C562.294 246.44 575.786 229.963 575.786 229.963C575.786 229.963 565.911 229.963 565.911 229.963C565.911 229.963 556.897 241.273 556.897 241.273C556.897 241.273 551.213 249.024 551.213 249.024C551.213 249.024 550.869 249.024 550.869 249.024C550.869 249.024 550.869 241.273 550.869 241.273C550.869 241.273 550.869 229.963 550.869 229.963C550.869 229.963 542.142 229.963 542.142 229.963ZM582.656 229.963C582.656 229.963 582.656 270.037 582.656 270.037C582.656 270.037 588.111 270.037 588.111 270.037C588.111 270.037 609.928 270.037 609.928 270.037C609.928 270.037 615.382 270.037 615.382 270.037C615.382 270.037 615.382 262.286 615.382 262.286C615.382 262.286 609.928 262.286 609.928 262.286C609.928 262.286 591.384 262.286 591.384 262.286C591.384 262.286 591.384 253.617 591.384 253.617C591.384 253.617 607.286 253.617 607.286 253.617C607.286 253.617 612.741 253.617 612.741 253.617C612.741 253.617 612.741 245.923 612.741 245.923C612.741 245.923 607.286 245.923 607.286 245.923C607.286 245.923 591.384 245.923 591.384 245.923C591.384 245.923 591.384 237.714 591.384 237.714C591.384 237.714 609.928 237.714 609.928 237.714C609.928 237.714 615.382 237.714 615.382 237.714C615.382 237.714 615.382 229.963 615.382 229.963C615.382 229.963 609.928 229.963 609.928 229.963C609.928 229.963 588.111 229.963 588.111 229.963C588.111 229.963 582.656 229.963 582.656 229.963ZM622.634 229.963C622.634 229.963 622.634 270.037 622.634 270.037C622.634 270.037 637.734 270.037 637.734 270.037C641.294 270.037 644.394 269.29 647.035 267.798C649.676 266.305 651.723 264.085 653.178 261.138C654.632 258.153 655.359 254.44 655.359 250C655.359 245.56 654.632 241.866 653.178 238.919C651.723 235.934 649.676 233.695 647.035 232.202C644.394 230.71 641.294 229.963 637.734 229.963C637.734 229.963 622.634 229.963 622.634 229.963ZM631.361 237.714C631.361 237.714 637.734 237.714 637.734 237.714C639.457 237.714 640.949 238.039 642.212 238.69C643.475 239.341 644.432 240.336 645.083 241.675C645.772 243.015 646.116 244.756 646.116 246.9C646.116 246.9 646.116 253.1 646.116 253.1C646.116 255.205 645.771 256.947 645.083 258.325C644.432 259.664 643.475 260.659 642.212 261.31C640.949 261.961 639.457 262.286 637.734 262.286C637.734 262.286 631.361 262.286 631.361 262.286C631.361 262.286 631.361 237.714 631.361 237.714ZM485.583 237.886C485.583 237.886 485.87 237.886 485.87 237.886C485.87 237.886 487.88 244.775 487.88 244.775C487.88 244.775 490.348 253.1 490.348 253.1C490.348 253.1 481.162 253.1 481.162 253.1C481.162 253.1 483.631 244.775 483.631 244.775C483.631 244.775 485.583 237.886 485.583 237.886Z" stroke-width="0.264582" stroke-linejoin="miter" fill-rule="evenodd" stroke-linecap="butt" fill="rgba(0, 0, 0, 0.457984)" id="e_blue_0"/>
              </g>
             </g>
            </g>
           </g>
          </g>
         </g>
        </g>
       </g>
      </g>
     </g>
    </g>
   </g>
  </g>
 </g>
 <defs/>
</svg>
