<?xml version="1.0" encoding="UTF-8" standalone="no"?>
<!-- Created with Friction - https://friction.graphics -->

<svg xmlns:xlink="http://www.w3.org/1999/xlink" viewBox="0 0 1000 600" xmlns="http://www.w3.org/2000/svg">
 <g transform="translate(500 300)">
  <g transform="translate(0.77808 0)">
   <g transform="rotate(0)">
    <g transform="scale(1 1)">
     <g transform="skewX(0) skewY(0)">
      <g opacity="1" transform="translate(-500 -300)">
       <rect width="999.735" height="599.735" stroke="none" y="0.132292" stroke-width="1" x="0.132292" stroke-linejoin="miter" stroke-linecap="butt" fill="rgba(255, 255, 255, 1)" rx="0" ry="0" id="bijelo"/>
      </g>
     </g>
    </g>
   </g>
  </g>
 </g>
 <g transform="translate(222.521 -18.6152)">
  <g transform="translate(119.924 256.634)">
   <g transform="rotate(0)">
    <g transform="scale(0.3 0.3)">
     <g transform="skewX(0) skewY(0)">
      <g opacity="1" transform="translate(-222.521 18.6152)">
       <g stroke="none" font-size="72" stroke-width="10" stroke-linejoin="round" stroke-linecap="round" text-anchor="start" fill="rgba(0, 0, 0, 1)" font-family="Arial" id="Text0">
        <text letter-spacing="0em" word-spacing="0em">
         <tspan x="0">Derrière chaque masque se cache une histoire</tspan>
        </text>
       </g>
      </g>
     </g>
    </g>
   </g>
  </g>
 </g>
 <g transform="translate(418.087 -725.559)">
  <g transform="translate(0 -2.75)">
   <g transform="rotate(0)">
    <g transform="scale(1 1)">
     <g transform="skewX(0) skewY(0)">
      <g opacity="1" transform="translate(-418.087 725.559)">
       <g id="Group5">
        <g transform="translate(500 247.288)">
         <g transform="translate(0 52.7125)">
          <g transform="rotate(0)">
           <g transform="scale(1 1)">
            <g transform="skewX(0) skewY(0)">
             <g opacity="1" transform="translate(-500 -247.288)">
              <g id="Group0">
               <g transform="translate(500 247.288)">
                <g transform="translate(0 0)">
                 <g transform="rotate(0)">
                  <g transform="scale(1 1)">
                   <g transform="skewX(0) skewY(0)">
                    <g opacity="1" transform="translate(-500 -247.288)">
                     <path stroke="none" d="M399.094 213.982C399.094 213.982 393.41 225.12 393.41 225.12C393.41 225.12 398.462 227.589 398.462 227.589C398.462 227.589 406.156 217.484 406.156 217.484C406.156 217.484 399.094 213.982 399.094 213.982ZM637.849 213.982C637.849 213.982 632.165 225.12 632.165 225.12C632.165 225.12 637.217 227.589 637.217 227.589C637.217 227.589 644.911 217.484 644.911 217.484C644.911 217.484 637.849 213.982 637.849 213.982ZM522.404 229.311C519.266 229.311 516.567 229.827 514.309 230.861C512.089 231.894 510.367 233.33 509.142 235.167C507.956 236.966 507.362 239.071 507.362 241.482C507.362 243.702 507.802 245.654 508.683 247.338C509.563 248.984 510.903 250.324 512.702 251.357C514.539 252.352 516.854 253.041 519.648 253.424C519.648 253.424 523.61 253.941 523.61 253.941C524.873 254.094 525.83 254.381 526.481 254.802C527.169 255.185 527.629 255.682 527.859 256.294C528.127 256.869 528.26 257.52 528.26 258.247C528.26 259.701 527.744 260.869 526.711 261.749C525.677 262.629 524.088 263.069 521.945 263.069C519.993 263.069 518.156 262.686 516.434 261.921C514.75 261.155 513.238 260.007 511.898 258.476C511.898 258.476 506.157 264.275 506.157 264.275C507.879 266.15 509.965 267.7 512.415 268.925C514.903 270.15 517.888 270.763 521.371 270.763C524.701 270.763 527.533 270.208 529.868 269.098C532.203 267.988 533.963 266.457 535.15 264.505C536.375 262.553 536.987 260.294 536.987 257.73C536.987 255.434 536.547 253.482 535.667 251.874C534.786 250.266 533.447 248.965 531.648 247.97C529.849 246.975 527.571 246.266 524.816 245.845C524.816 245.845 520.855 245.214 520.855 245.214C519.745 245.023 518.826 244.774 518.099 244.468C517.41 244.162 516.893 243.722 516.548 243.147C516.242 242.573 516.089 241.827 516.089 240.908C516.089 239.684 516.568 238.727 517.525 238.038C518.481 237.349 519.936 237.004 521.888 237.004C523.954 237.004 525.658 237.368 526.997 238.095C528.375 238.784 529.543 239.684 530.499 240.794C530.499 240.794 536.298 234.937 536.298 234.937C534.652 233.138 532.681 231.76 530.385 230.804C528.088 229.808 525.428 229.311 522.404 229.311C522.404 229.311 522.404 229.311 522.404 229.311ZM559.767 229.311C556.246 229.311 553.146 230.096 550.467 231.665C547.826 233.234 545.778 235.55 544.323 238.612C542.869 241.674 542.142 245.482 542.142 250.037C542.142 254.018 542.697 257.443 543.807 260.313C544.955 263.146 546.582 265.423 548.687 267.145C550.792 268.83 553.261 269.94 556.093 270.475C556.093 270.475 556.093 272.14 556.093 272.14C556.093 274.896 556.801 277.001 558.217 278.456C559.633 279.91 561.892 280.638 564.992 280.638C564.992 280.638 570.389 280.638 570.389 280.638C570.389 280.638 570.389 273.518 570.389 273.518C570.389 273.518 564.246 273.518 564.246 273.518C564.246 273.518 564.246 270.303 564.246 270.303C566.963 269.729 569.298 268.581 571.25 266.859C573.202 265.136 574.714 262.878 575.785 260.084C576.857 257.252 577.393 253.903 577.393 250.037C577.393 245.482 576.666 241.674 575.211 238.612C573.757 235.55 571.709 233.234 569.068 231.665C566.427 230.096 563.327 229.311 559.767 229.311C559.767 229.311 559.767 229.311 559.767 229.311ZM344.64 230C344.64 230 344.64 270.073 344.64 270.073C344.64 270.073 359.74 270.073 359.74 270.073C363.299 270.073 366.4 269.327 369.041 267.834C371.681 266.342 373.729 264.122 375.184 261.175C376.638 258.189 377.366 254.477 377.366 250.037C377.366 245.597 376.638 241.903 375.184 238.956C373.729 235.971 371.682 233.732 369.041 232.239C366.4 230.746 363.299 230 359.74 230C359.74 230 344.64 230 344.64 230ZM383.88 230C383.88 230 383.88 270.073 383.88 270.073C383.88 270.073 389.334 270.073 389.334 270.073C389.334 270.073 411.151 270.073 411.151 270.073C411.151 270.073 416.605 270.073 416.605 270.073C416.605 270.073 416.605 262.323 416.605 262.323C416.605 262.323 411.151 262.323 411.151 262.323C411.151 262.323 398.06 262.323 398.06 262.323C398.06 262.323 392.607 262.323 392.607 262.323C392.607 262.323 392.607 253.654 392.607 253.654C392.607 253.654 398.06 253.654 398.06 253.654C398.06 253.654 408.509 253.654 408.509 253.654C408.509 253.654 413.964 253.654 413.964 253.654C413.964 253.654 413.964 245.96 413.964 245.96C413.964 245.96 408.509 245.96 408.509 245.96C408.509 245.96 398.06 245.96 398.06 245.96C398.06 245.96 392.607 245.96 392.607 245.96C392.607 245.96 392.607 237.75 392.607 237.75C392.607 237.75 398.06 237.75 398.06 237.75C398.06 237.75 411.151 237.75 411.151 237.75C411.151 237.75 416.605 237.75 416.605 237.75C416.605 237.75 416.605 230 416.605 230C416.605 230 411.151 230 411.151 230C411.151 230 389.334 230 389.334 230C389.334 230 383.88 230 383.88 230ZM424.693 230C424.693 230 424.693 270.073 424.693 270.073C424.693 270.073 432.903 270.073 432.903 270.073C432.903 270.073 432.903 249.979 432.903 249.979C432.903 249.979 432.903 243.377 432.903 243.377C432.903 243.377 433.075 243.377 433.075 243.377C433.075 243.377 436.119 249.692 436.119 249.692C436.119 249.692 443.754 263.816 443.754 263.816C443.754 263.816 451.563 249.635 451.563 249.635C451.563 249.635 454.491 243.779 454.491 243.779C454.491 243.779 454.663 243.779 454.663 243.779C454.663 243.779 454.663 249.979 454.663 249.979C454.663 249.979 454.663 270.073 454.663 270.073C454.663 270.073 462.873 270.073 462.873 270.073C462.873 270.073 462.873 230 462.873 230C462.873 230 453.572 230 453.572 230C453.572 230 448.29 240.219 448.29 240.219C448.29 240.219 443.869 248.773 443.869 248.773C443.869 248.773 443.754 248.773 443.754 248.773C443.754 248.773 439.276 240.219 439.276 240.219C439.276 240.219 433.937 230 433.937 230C433.937 230 424.693 230 424.693 230ZM480.588 230C480.588 230 467.383 270.073 467.383 270.073C467.383 270.073 476.225 270.073 476.225 270.073C476.225 270.073 479.095 260.543 479.095 260.543C479.095 260.543 492.472 260.543 492.472 260.543C492.472 260.543 495.343 270.073 495.343 270.073C495.343 270.073 504.414 270.073 504.414 270.073C504.414 270.073 491.382 230 491.382 230C491.382 230 480.588 230 480.588 230ZM582.656 230C582.656 230 582.656 253.654 582.656 253.654C582.656 257.596 583.173 260.83 584.207 263.357C585.24 265.883 586.905 267.758 589.202 268.983C591.498 270.169 594.56 270.763 598.388 270.763C602.215 270.763 605.277 270.169 607.574 268.983C609.87 267.758 611.535 265.883 612.568 263.357C613.602 260.83 614.119 257.596 614.119 253.654C614.119 253.654 614.119 230 614.119 230C614.119 230 605.621 230 605.621 230C605.621 230 605.621 254.572 605.621 254.572C605.621 256.448 605.373 258.017 604.875 259.28C604.378 260.505 603.593 261.443 602.521 262.094C601.488 262.706 600.11 263.012 598.388 263.012C596.665 263.012 595.268 262.706 594.196 262.094C593.125 261.443 592.34 260.505 591.842 259.28C591.383 258.017 591.154 256.448 591.154 254.572C591.154 254.572 591.154 230 591.154 230C591.154 230 582.656 230 582.656 230ZM622.634 230C622.634 230 622.634 270.073 622.634 270.073C622.634 270.073 628.089 270.073 628.089 270.073C628.089 270.073 649.906 270.073 649.906 270.073C649.906 270.073 655.359 270.073 655.359 270.073C655.359 270.073 655.359 262.323 655.359 262.323C655.359 262.323 649.906 262.323 649.906 262.323C649.906 262.323 636.815 262.323 636.815 262.323C636.815 262.323 631.362 262.323 631.362 262.323C631.362 262.323 631.362 253.654 631.362 253.654C631.362 253.654 636.815 253.654 636.815 253.654C636.815 253.654 647.264 253.654 647.264 253.654C647.264 253.654 652.719 253.654 652.719 253.654C652.719 253.654 652.719 245.96 652.719 245.96C652.719 245.96 647.264 245.96 647.264 245.96C647.264 245.96 636.815 245.96 636.815 245.96C636.815 245.96 631.362 245.96 631.362 245.96C631.362 245.96 631.362 237.75 631.362 237.75C631.362 237.75 636.815 237.75 636.815 237.75C636.815 237.75 649.906 237.75 649.906 237.75C649.906 237.75 655.359 237.75 655.359 237.75C655.359 237.75 655.359 230 655.359 230C655.359 230 649.906 230 649.906 230C649.906 230 628.089 230 628.089 230C628.089 230 622.634 230 622.634 230ZM559.767 237.061C561.528 237.061 563.021 237.463 564.246 238.267C565.509 239.033 566.466 240.162 567.116 241.654C567.805 243.109 568.15 244.908 568.15 247.051C568.15 247.051 568.15 253.022 568.15 253.022C568.15 255.127 567.805 256.926 567.116 258.419C566.466 259.912 565.509 261.06 564.246 261.864C563.021 262.629 561.528 263.012 559.767 263.012C558.045 263.012 556.552 262.629 555.289 261.864C554.026 261.06 553.05 259.912 552.361 258.419C551.71 256.926 551.385 255.127 551.385 253.022C551.385 253.022 551.385 247.051 551.385 247.051C551.385 244.908 551.71 243.109 552.361 241.654C553.05 240.162 554.026 239.033 555.289 238.267C556.552 237.463 558.045 237.061 559.767 237.061ZM353.367 237.75C353.367 237.75 359.74 237.75 359.74 237.75C361.462 237.75 362.955 238.076 364.218 238.727C365.481 239.377 366.438 240.372 367.089 241.712C367.778 243.051 368.122 244.793 368.122 246.936C368.122 246.936 368.122 253.137 368.122 253.137C368.122 255.242 367.778 256.984 367.089 258.361C366.438 259.701 365.481 260.696 364.218 261.347C362.955 261.997 361.462 262.323 359.74 262.323C359.74 262.323 353.367 262.323 353.367 262.323C353.367 262.323 353.367 237.75 353.367 237.75ZM485.583 237.923C485.583 237.923 485.87 237.923 485.87 237.923C485.87 237.923 487.879 244.812 487.879 244.812C487.879 244.812 490.348 253.137 490.348 253.137C490.348 253.137 481.162 253.137 481.162 253.137C481.162 253.137 483.631 244.812 483.631 244.812C483.631 244.812 485.583 237.923 485.583 237.923Z" stroke-width="0.264582" stroke-linejoin="miter" fill-rule="evenodd" stroke-linecap="butt" fill="rgba(0, 0, 0, 1)" id="f_red_1"/>
                    </g>
                   </g>
                  </g>
                 </g>
                </g>
               </g>
              </g>
             </g>
            </g>
           </g>
          </g>
         </g>
        </g>
       </g>
      </g>
     </g>
    </g>
   </g>
  </g>
 </g>
 <g transform="translate(500 300)">
  <g>
   <animateTransform attributeName="transform" keyTimes="0;0.002;0.624;0.998;1" repeatCount="indefinite" type="translate" keySplines="0 0 1 1;0 0 1 1;0 0 1 1;0 0 1 1" values="1289.82 -170;1289.82 -170;-309.591 -170;-1279.1 -170;-1279.1 -170" dur="10s" calcMode="spline"/>
   <g transform="rotate(0)">
    <g transform="scale(5 5)">
     <g transform="skewX(0) skewY(0)">
      <g opacity="1" transform="translate(-500 -300)">
       <g id="Group7">
        <g transform="translate(500 247.288)">
         <g transform="translate(0 52.7125)">
          <g transform="rotate(0)">
           <g transform="scale(1 1)">
            <g transform="skewX(0) skewY(0)">
             <g opacity="1" transform="translate(-500 -247.288)">
              <g id="Group0">
               <g transform="translate(500 247.288)">
                <g transform="translate(0 0)">
                 <g transform="rotate(0)">
                  <g transform="scale(1 1)">
                   <g transform="skewX(0) skewY(0)">
                    <g opacity="1" transform="translate(-500 -247.288)">
                     <path stroke="none" d="M399.094 213.982C399.094 213.982 393.41 225.12 393.41 225.12C393.41 225.12 398.462 227.589 398.462 227.589C398.462 227.589 406.156 217.484 406.156 217.484C406.156 217.484 399.094 213.982 399.094 213.982ZM637.849 213.982C637.849 213.982 632.165 225.12 632.165 225.12C632.165 225.12 637.217 227.589 637.217 227.589C637.217 227.589 644.911 217.484 644.911 217.484C644.911 217.484 637.849 213.982 637.849 213.982ZM522.404 229.311C519.266 229.311 516.567 229.827 514.309 230.861C512.089 231.894 510.367 233.33 509.142 235.167C507.956 236.966 507.362 239.071 507.362 241.482C507.362 243.702 507.802 245.654 508.683 247.338C509.563 248.984 510.903 250.324 512.702 251.357C514.539 252.352 516.854 253.041 519.648 253.424C519.648 253.424 523.61 253.941 523.61 253.941C524.873 254.094 525.83 254.381 526.481 254.802C527.169 255.185 527.629 255.682 527.859 256.294C528.127 256.869 528.26 257.52 528.26 258.247C528.26 259.701 527.744 260.869 526.711 261.749C525.677 262.629 524.088 263.069 521.945 263.069C519.993 263.069 518.156 262.686 516.434 261.921C514.75 261.155 513.238 260.007 511.898 258.476C511.898 258.476 506.157 264.275 506.157 264.275C507.879 266.15 509.965 267.7 512.415 268.925C514.903 270.15 517.888 270.763 521.371 270.763C524.701 270.763 527.533 270.208 529.868 269.098C532.203 267.988 533.963 266.457 535.15 264.505C536.375 262.553 536.987 260.294 536.987 257.73C536.987 255.434 536.547 253.482 535.667 251.874C534.786 250.266 533.447 248.965 531.648 247.97C529.849 246.975 527.571 246.266 524.816 245.845C524.816 245.845 520.855 245.214 520.855 245.214C519.745 245.023 518.826 244.774 518.099 244.468C517.41 244.162 516.893 243.722 516.548 243.147C516.242 242.573 516.089 241.827 516.089 240.908C516.089 239.684 516.568 238.727 517.525 238.038C518.481 237.349 519.936 237.004 521.888 237.004C523.954 237.004 525.658 237.368 526.997 238.095C528.375 238.784 529.543 239.684 530.499 240.794C530.499 240.794 536.298 234.937 536.298 234.937C534.652 233.138 532.681 231.76 530.385 230.804C528.088 229.808 525.428 229.311 522.404 229.311C522.404 229.311 522.404 229.311 522.404 229.311ZM559.767 229.311C556.246 229.311 553.146 230.096 550.467 231.665C547.826 233.234 545.778 235.55 544.323 238.612C542.869 241.674 542.142 245.482 542.142 250.037C542.142 254.018 542.697 257.443 543.807 260.313C544.955 263.146 546.582 265.423 548.687 267.145C550.792 268.83 553.261 269.94 556.093 270.475C556.093 270.475 556.093 272.14 556.093 272.14C556.093 274.896 556.801 277.001 558.217 278.456C559.633 279.91 561.892 280.638 564.992 280.638C564.992 280.638 570.389 280.638 570.389 280.638C570.389 280.638 570.389 273.518 570.389 273.518C570.389 273.518 564.246 273.518 564.246 273.518C564.246 273.518 564.246 270.303 564.246 270.303C566.963 269.729 569.298 268.581 571.25 266.859C573.202 265.136 574.714 262.878 575.785 260.084C576.857 257.252 577.393 253.903 577.393 250.037C577.393 245.482 576.666 241.674 575.211 238.612C573.757 235.55 571.709 233.234 569.068 231.665C566.427 230.096 563.327 229.311 559.767 229.311C559.767 229.311 559.767 229.311 559.767 229.311ZM344.64 230C344.64 230 344.64 270.073 344.64 270.073C344.64 270.073 359.74 270.073 359.74 270.073C363.299 270.073 366.4 269.327 369.041 267.834C371.681 266.342 373.729 264.122 375.184 261.175C376.638 258.189 377.366 254.477 377.366 250.037C377.366 245.597 376.638 241.903 375.184 238.956C373.729 235.971 371.682 233.732 369.041 232.239C366.4 230.746 363.299 230 359.74 230C359.74 230 344.64 230 344.64 230ZM383.88 230C383.88 230 383.88 270.073 383.88 270.073C383.88 270.073 389.334 270.073 389.334 270.073C389.334 270.073 411.151 270.073 411.151 270.073C411.151 270.073 416.605 270.073 416.605 270.073C416.605 270.073 416.605 262.323 416.605 262.323C416.605 262.323 411.151 262.323 411.151 262.323C411.151 262.323 398.06 262.323 398.06 262.323C398.06 262.323 392.607 262.323 392.607 262.323C392.607 262.323 392.607 253.654 392.607 253.654C392.607 253.654 398.06 253.654 398.06 253.654C398.06 253.654 408.509 253.654 408.509 253.654C408.509 253.654 413.964 253.654 413.964 253.654C413.964 253.654 413.964 245.96 413.964 245.96C413.964 245.96 408.509 245.96 408.509 245.96C408.509 245.96 398.06 245.96 398.06 245.96C398.06 245.96 392.607 245.96 392.607 245.96C392.607 245.96 392.607 237.75 392.607 237.75C392.607 237.75 398.06 237.75 398.06 237.75C398.06 237.75 411.151 237.75 411.151 237.75C411.151 237.75 416.605 237.75 416.605 237.75C416.605 237.75 416.605 230 416.605 230C416.605 230 411.151 230 411.151 230C411.151 230 389.334 230 389.334 230C389.334 230 383.88 230 383.88 230ZM424.693 230C424.693 230 424.693 270.073 424.693 270.073C424.693 270.073 432.903 270.073 432.903 270.073C432.903 270.073 432.903 249.979 432.903 249.979C432.903 249.979 432.903 243.377 432.903 243.377C432.903 243.377 433.075 243.377 433.075 243.377C433.075 243.377 436.119 249.692 436.119 249.692C436.119 249.692 443.754 263.816 443.754 263.816C443.754 263.816 451.563 249.635 451.563 249.635C451.563 249.635 454.491 243.779 454.491 243.779C454.491 243.779 454.663 243.779 454.663 243.779C454.663 243.779 454.663 249.979 454.663 249.979C454.663 249.979 454.663 270.073 454.663 270.073C454.663 270.073 462.873 270.073 462.873 270.073C462.873 270.073 462.873 230 462.873 230C462.873 230 453.572 230 453.572 230C453.572 230 448.29 240.219 448.29 240.219C448.29 240.219 443.869 248.773 443.869 248.773C443.869 248.773 443.754 248.773 443.754 248.773C443.754 248.773 439.276 240.219 439.276 240.219C439.276 240.219 433.937 230 433.937 230C433.937 230 424.693 230 424.693 230ZM480.588 230C480.588 230 467.383 270.073 467.383 270.073C467.383 270.073 476.225 270.073 476.225 270.073C476.225 270.073 479.095 260.543 479.095 260.543C479.095 260.543 492.472 260.543 492.472 260.543C492.472 260.543 495.343 270.073 495.343 270.073C495.343 270.073 504.414 270.073 504.414 270.073C504.414 270.073 491.382 230 491.382 230C491.382 230 480.588 230 480.588 230ZM582.656 230C582.656 230 582.656 253.654 582.656 253.654C582.656 257.596 583.173 260.83 584.207 263.357C585.24 265.883 586.905 267.758 589.202 268.983C591.498 270.169 594.56 270.763 598.388 270.763C602.215 270.763 605.277 270.169 607.574 268.983C609.87 267.758 611.535 265.883 612.568 263.357C613.602 260.83 614.119 257.596 614.119 253.654C614.119 253.654 614.119 230 614.119 230C614.119 230 605.621 230 605.621 230C605.621 230 605.621 254.572 605.621 254.572C605.621 256.448 605.373 258.017 604.875 259.28C604.378 260.505 603.593 261.443 602.521 262.094C601.488 262.706 600.11 263.012 598.388 263.012C596.665 263.012 595.268 262.706 594.196 262.094C593.125 261.443 592.34 260.505 591.842 259.28C591.383 258.017 591.154 256.448 591.154 254.572C591.154 254.572 591.154 230 591.154 230C591.154 230 582.656 230 582.656 230ZM622.634 230C622.634 230 622.634 270.073 622.634 270.073C622.634 270.073 628.089 270.073 628.089 270.073C628.089 270.073 649.906 270.073 649.906 270.073C649.906 270.073 655.359 270.073 655.359 270.073C655.359 270.073 655.359 262.323 655.359 262.323C655.359 262.323 649.906 262.323 649.906 262.323C649.906 262.323 636.815 262.323 636.815 262.323C636.815 262.323 631.362 262.323 631.362 262.323C631.362 262.323 631.362 253.654 631.362 253.654C631.362 253.654 636.815 253.654 636.815 253.654C636.815 253.654 647.264 253.654 647.264 253.654C647.264 253.654 652.719 253.654 652.719 253.654C652.719 253.654 652.719 245.96 652.719 245.96C652.719 245.96 647.264 245.96 647.264 245.96C647.264 245.96 636.815 245.96 636.815 245.96C636.815 245.96 631.362 245.96 631.362 245.96C631.362 245.96 631.362 237.75 631.362 237.75C631.362 237.75 636.815 237.75 636.815 237.75C636.815 237.75 649.906 237.75 649.906 237.75C649.906 237.75 655.359 237.75 655.359 237.75C655.359 237.75 655.359 230 655.359 230C655.359 230 649.906 230 649.906 230C649.906 230 628.089 230 628.089 230C628.089 230 622.634 230 622.634 230ZM559.767 237.061C561.528 237.061 563.021 237.463 564.246 238.267C565.509 239.033 566.466 240.162 567.116 241.654C567.805 243.109 568.15 244.908 568.15 247.051C568.15 247.051 568.15 253.022 568.15 253.022C568.15 255.127 567.805 256.926 567.116 258.419C566.466 259.912 565.509 261.06 564.246 261.864C563.021 262.629 561.528 263.012 559.767 263.012C558.045 263.012 556.552 262.629 555.289 261.864C554.026 261.06 553.05 259.912 552.361 258.419C551.71 256.926 551.385 255.127 551.385 253.022C551.385 253.022 551.385 247.051 551.385 247.051C551.385 244.908 551.71 243.109 552.361 241.654C553.05 240.162 554.026 239.033 555.289 238.267C556.552 237.463 558.045 237.061 559.767 237.061ZM353.367 237.75C353.367 237.75 359.74 237.75 359.74 237.75C361.462 237.75 362.955 238.076 364.218 238.727C365.481 239.377 366.438 240.372 367.089 241.712C367.778 243.051 368.122 244.793 368.122 246.936C368.122 246.936 368.122 253.137 368.122 253.137C368.122 255.242 367.778 256.984 367.089 258.361C366.438 259.701 365.481 260.696 364.218 261.347C362.955 261.997 361.462 262.323 359.74 262.323C359.74 262.323 353.367 262.323 353.367 262.323C353.367 262.323 353.367 237.75 353.367 237.75ZM485.583 237.923C485.583 237.923 485.87 237.923 485.87 237.923C485.87 237.923 487.879 244.812 487.879 244.812C487.879 244.812 490.348 253.137 490.348 253.137C490.348 253.137 481.162 253.137 481.162 253.137C481.162 253.137 483.631 244.812 483.631 244.812C483.631 244.812 485.583 237.923 485.583 237.923Z" stroke-width="0.264582" stroke-linejoin="miter" fill-rule="evenodd" stroke-linecap="butt" fill="rgba(0, 0, 0, 0.0294194)" id="f_red_1"/>
                    </g>
                   </g>
                  </g>
                 </g>
                </g>
               </g>
              </g>
             </g>
            </g>
           </g>
          </g>
         </g>
        </g>
       </g>
      </g>
     </g>
    </g>
   </g>
  </g>
 </g>
 <g transform="translate(500 300)">
  <g transform="translate(0 -151.811)">
   <g transform="rotate(0)">
    <g>
     <animateTransform attributeName="transform" keyTimes="0;0.04;0.996;1" repeatCount="indefinite" type="scale" keySplines="0 0 1 1;0 0 1 1;0 0 1 1" values="2 1;2 1;2.5 1;2.5 1" dur="10s" calcMode="spline"/>
     <g>
      <animateTransform attributeName="transform" keyTimes="0;0.04;0.996;1" repeatCount="indefinite" type="scale" keySplines="0 0 1 1;0 0 1 1;0 0 1 1" values="1 2;1 2;1 2.5;1 2.5" dur="10s" calcMode="spline"/>
      <g transform="skewX(0) skewY(0)">
       <g opacity="1" transform="translate(-500 -300)">
        <g id="Group6">
         <g transform="translate(500 247.288)">
          <g transform="translate(0 52.7125)">
           <g transform="rotate(0)">
            <g transform="scale(1 1)">
             <g transform="skewX(0) skewY(0)">
              <g opacity="1" transform="translate(-500 -247.288)">
               <g id="Group0">
                <g transform="translate(500 247.288)">
                 <g transform="translate(0 0)">
                  <g transform="rotate(0)">
                   <g transform="scale(1 1)">
                    <g transform="skewX(0) skewY(0)">
                     <g opacity="1" transform="translate(-500 -247.288)">
                      <path stroke="none" d="M399.094 213.982C399.094 213.982 393.41 225.12 393.41 225.12C393.41 225.12 398.462 227.589 398.462 227.589C398.462 227.589 406.156 217.484 406.156 217.484C406.156 217.484 399.094 213.982 399.094 213.982ZM637.849 213.982C637.849 213.982 632.165 225.12 632.165 225.12C632.165 225.12 637.217 227.589 637.217 227.589C637.217 227.589 644.911 217.484 644.911 217.484C644.911 217.484 637.849 213.982 637.849 213.982ZM522.404 229.311C519.266 229.311 516.567 229.827 514.309 230.861C512.089 231.894 510.367 233.33 509.142 235.167C507.956 236.966 507.362 239.071 507.362 241.482C507.362 243.702 507.802 245.654 508.683 247.338C509.563 248.984 510.903 250.324 512.702 251.357C514.539 252.352 516.854 253.041 519.648 253.424C519.648 253.424 523.61 253.941 523.61 253.941C524.873 254.094 525.83 254.381 526.481 254.802C527.169 255.185 527.629 255.682 527.859 256.294C528.127 256.869 528.26 257.52 528.26 258.247C528.26 259.701 527.744 260.869 526.711 261.749C525.677 262.629 524.088 263.069 521.945 263.069C519.993 263.069 518.156 262.686 516.434 261.921C514.75 261.155 513.238 260.007 511.898 258.476C511.898 258.476 506.157 264.275 506.157 264.275C507.879 266.15 509.965 267.7 512.415 268.925C514.903 270.15 517.888 270.763 521.371 270.763C524.701 270.763 527.533 270.208 529.868 269.098C532.203 267.988 533.963 266.457 535.15 264.505C536.375 262.553 536.987 260.294 536.987 257.73C536.987 255.434 536.547 253.482 535.667 251.874C534.786 250.266 533.447 248.965 531.648 247.97C529.849 246.975 527.571 246.266 524.816 245.845C524.816 245.845 520.855 245.214 520.855 245.214C519.745 245.023 518.826 244.774 518.099 244.468C517.41 244.162 516.893 243.722 516.548 243.147C516.242 242.573 516.089 241.827 516.089 240.908C516.089 239.684 516.568 238.727 517.525 238.038C518.481 237.349 519.936 237.004 521.888 237.004C523.954 237.004 525.658 237.368 526.997 238.095C528.375 238.784 529.543 239.684 530.499 240.794C530.499 240.794 536.298 234.937 536.298 234.937C534.652 233.138 532.681 231.76 530.385 230.804C528.088 229.808 525.428 229.311 522.404 229.311C522.404 229.311 522.404 229.311 522.404 229.311ZM559.767 229.311C556.246 229.311 553.146 230.096 550.467 231.665C547.826 233.234 545.778 235.55 544.323 238.612C542.869 241.674 542.142 245.482 542.142 250.037C542.142 254.018 542.697 257.443 543.807 260.313C544.955 263.146 546.582 265.423 548.687 267.145C550.792 268.83 553.261 269.94 556.093 270.475C556.093 270.475 556.093 272.14 556.093 272.14C556.093 274.896 556.801 277.001 558.217 278.456C559.633 279.91 561.892 280.638 564.992 280.638C564.992 280.638 570.389 280.638 570.389 280.638C570.389 280.638 570.389 273.518 570.389 273.518C570.389 273.518 564.246 273.518 564.246 273.518C564.246 273.518 564.246 270.303 564.246 270.303C566.963 269.729 569.298 268.581 571.25 266.859C573.202 265.136 574.714 262.878 575.785 260.084C576.857 257.252 577.393 253.903 577.393 250.037C577.393 245.482 576.666 241.674 575.211 238.612C573.757 235.55 571.709 233.234 569.068 231.665C566.427 230.096 563.327 229.311 559.767 229.311C559.767 229.311 559.767 229.311 559.767 229.311ZM344.64 230C344.64 230 344.64 270.073 344.64 270.073C344.64 270.073 359.74 270.073 359.74 270.073C363.299 270.073 366.4 269.327 369.041 267.834C371.681 266.342 373.729 264.122 375.184 261.175C376.638 258.189 377.366 254.477 377.366 250.037C377.366 245.597 376.638 241.903 375.184 238.956C373.729 235.971 371.682 233.732 369.041 232.239C366.4 230.746 363.299 230 359.74 230C359.74 230 344.64 230 344.64 230ZM383.88 230C383.88 230 383.88 270.073 383.88 270.073C383.88 270.073 389.334 270.073 389.334 270.073C389.334 270.073 411.151 270.073 411.151 270.073C411.151 270.073 416.605 270.073 416.605 270.073C416.605 270.073 416.605 262.323 416.605 262.323C416.605 262.323 411.151 262.323 411.151 262.323C411.151 262.323 398.06 262.323 398.06 262.323C398.06 262.323 392.607 262.323 392.607 262.323C392.607 262.323 392.607 253.654 392.607 253.654C392.607 253.654 398.06 253.654 398.06 253.654C398.06 253.654 408.509 253.654 408.509 253.654C408.509 253.654 413.964 253.654 413.964 253.654C413.964 253.654 413.964 245.96 413.964 245.96C413.964 245.96 408.509 245.96 408.509 245.96C408.509 245.96 398.06 245.96 398.06 245.96C398.06 245.96 392.607 245.96 392.607 245.96C392.607 245.96 392.607 237.75 392.607 237.75C392.607 237.75 398.06 237.75 398.06 237.75C398.06 237.75 411.151 237.75 411.151 237.75C411.151 237.75 416.605 237.75 416.605 237.75C416.605 237.75 416.605 230 416.605 230C416.605 230 411.151 230 411.151 230C411.151 230 389.334 230 389.334 230C389.334 230 383.88 230 383.88 230ZM424.693 230C424.693 230 424.693 270.073 424.693 270.073C424.693 270.073 432.903 270.073 432.903 270.073C432.903 270.073 432.903 249.979 432.903 249.979C432.903 249.979 432.903 243.377 432.903 243.377C432.903 243.377 433.075 243.377 433.075 243.377C433.075 243.377 436.119 249.692 436.119 249.692C436.119 249.692 443.754 263.816 443.754 263.816C443.754 263.816 451.563 249.635 451.563 249.635C451.563 249.635 454.491 243.779 454.491 243.779C454.491 243.779 454.663 243.779 454.663 243.779C454.663 243.779 454.663 249.979 454.663 249.979C454.663 249.979 454.663 270.073 454.663 270.073C454.663 270.073 462.873 270.073 462.873 270.073C462.873 270.073 462.873 230 462.873 230C462.873 230 453.572 230 453.572 230C453.572 230 448.29 240.219 448.29 240.219C448.29 240.219 443.869 248.773 443.869 248.773C443.869 248.773 443.754 248.773 443.754 248.773C443.754 248.773 439.276 240.219 439.276 240.219C439.276 240.219 433.937 230 433.937 230C433.937 230 424.693 230 424.693 230ZM480.588 230C480.588 230 467.383 270.073 467.383 270.073C467.383 270.073 476.225 270.073 476.225 270.073C476.225 270.073 479.095 260.543 479.095 260.543C479.095 260.543 492.472 260.543 492.472 260.543C492.472 260.543 495.343 270.073 495.343 270.073C495.343 270.073 504.414 270.073 504.414 270.073C504.414 270.073 491.382 230 491.382 230C491.382 230 480.588 230 480.588 230ZM582.656 230C582.656 230 582.656 253.654 582.656 253.654C582.656 257.596 583.173 260.83 584.207 263.357C585.24 265.883 586.905 267.758 589.202 268.983C591.498 270.169 594.56 270.763 598.388 270.763C602.215 270.763 605.277 270.169 607.574 268.983C609.87 267.758 611.535 265.883 612.568 263.357C613.602 260.83 614.119 257.596 614.119 253.654C614.119 253.654 614.119 230 614.119 230C614.119 230 605.621 230 605.621 230C605.621 230 605.621 254.572 605.621 254.572C605.621 256.448 605.373 258.017 604.875 259.28C604.378 260.505 603.593 261.443 602.521 262.094C601.488 262.706 600.11 263.012 598.388 263.012C596.665 263.012 595.268 262.706 594.196 262.094C593.125 261.443 592.34 260.505 591.842 259.28C591.383 258.017 591.154 256.448 591.154 254.572C591.154 254.572 591.154 230 591.154 230C591.154 230 582.656 230 582.656 230ZM622.634 230C622.634 230 622.634 270.073 622.634 270.073C622.634 270.073 628.089 270.073 628.089 270.073C628.089 270.073 649.906 270.073 649.906 270.073C649.906 270.073 655.359 270.073 655.359 270.073C655.359 270.073 655.359 262.323 655.359 262.323C655.359 262.323 649.906 262.323 649.906 262.323C649.906 262.323 636.815 262.323 636.815 262.323C636.815 262.323 631.362 262.323 631.362 262.323C631.362 262.323 631.362 253.654 631.362 253.654C631.362 253.654 636.815 253.654 636.815 253.654C636.815 253.654 647.264 253.654 647.264 253.654C647.264 253.654 652.719 253.654 652.719 253.654C652.719 253.654 652.719 245.96 652.719 245.96C652.719 245.96 647.264 245.96 647.264 245.96C647.264 245.96 636.815 245.96 636.815 245.96C636.815 245.96 631.362 245.96 631.362 245.96C631.362 245.96 631.362 237.75 631.362 237.75C631.362 237.75 636.815 237.75 636.815 237.75C636.815 237.75 649.906 237.75 649.906 237.75C649.906 237.75 655.359 237.75 655.359 237.75C655.359 237.75 655.359 230 655.359 230C655.359 230 649.906 230 649.906 230C649.906 230 628.089 230 628.089 230C628.089 230 622.634 230 622.634 230ZM559.767 237.061C561.528 237.061 563.021 237.463 564.246 238.267C565.509 239.033 566.466 240.162 567.116 241.654C567.805 243.109 568.15 244.908 568.15 247.051C568.15 247.051 568.15 253.022 568.15 253.022C568.15 255.127 567.805 256.926 567.116 258.419C566.466 259.912 565.509 261.06 564.246 261.864C563.021 262.629 561.528 263.012 559.767 263.012C558.045 263.012 556.552 262.629 555.289 261.864C554.026 261.06 553.05 259.912 552.361 258.419C551.71 256.926 551.385 255.127 551.385 253.022C551.385 253.022 551.385 247.051 551.385 247.051C551.385 244.908 551.71 243.109 552.361 241.654C553.05 240.162 554.026 239.033 555.289 238.267C556.552 237.463 558.045 237.061 559.767 237.061ZM353.367 237.75C353.367 237.75 359.74 237.75 359.74 237.75C361.462 237.75 362.955 238.076 364.218 238.727C365.481 239.377 366.438 240.372 367.089 241.712C367.778 243.051 368.122 244.793 368.122 246.936C368.122 246.936 368.122 253.137 368.122 253.137C368.122 255.242 367.778 256.984 367.089 258.361C366.438 259.701 365.481 260.696 364.218 261.347C362.955 261.997 361.462 262.323 359.74 262.323C359.74 262.323 353.367 262.323 353.367 262.323C353.367 262.323 353.367 237.75 353.367 237.75ZM485.583 237.923C485.583 237.923 485.87 237.923 485.87 237.923C485.87 237.923 487.879 244.812 487.879 244.812C487.879 244.812 490.348 253.137 490.348 253.137C490.348 253.137 481.162 253.137 481.162 253.137C481.162 253.137 483.631 244.812 483.631 244.812C483.631 244.812 485.583 237.923 485.583 237.923Z" stroke-width="0.264582" stroke-linejoin="miter" fill-rule="evenodd" stroke-linecap="butt" fill="rgba(255, 255, 255, 1)" id="f_red_1"/>
                     </g>
                    </g>
                   </g>
                  </g>
                 </g>
                </g>
               </g>
              </g>
             </g>
            </g>
           </g>
          </g>
         </g>
        </g>
       </g>
      </g>
     </g>
    </g>
   </g>
  </g>
 </g>
 <defs/>
</svg>
